<?xml version="1.0" encoding="UTF-8"?>
<svg version="1.1" xmlns="http://www.w3.org/2000/svg" width="666" height="375">
<path d="M0 0 C1.65 0 3.3 0 5 0 C7.84410326 6.12244178 10.22478362 12.29185641 12.375 18.6875 C14.38682729 24.5632445 16.48110205 30.32237708 19 36 C21.47411698 41.5799234 23.52774579 47.22972922 25.5 53 C27.91801395 60.07365245 30.59033236 66.8977662 33.609375 73.73828125 C35.47041954 78.10337167 37.02245358 82.55262508 38.5859375 87.03125 C42.31063742 97.60742297 46.47241465 108.03644212 50.5 118.5 C51.33333333 120.66666667 52.16666667 122.83333333 53 125 C53.30437988 125.78906738 53.60875977 126.57813477 53.92236328 127.39111328 C61.43880532 146.89352519 61.43880532 146.89352519 64.015625 155.13671875 C64.88978008 157.6794 65.85122702 160.14899612 66.859375 162.640625 C69.42332451 168.9874025 71.70857682 175.42785 74 181.87695312 C75.84669447 187.01667895 77.82286018 192.03207624 80.11914062 196.98852539 C81.35492317 199.81048003 82.28446623 202.70765214 83.23046875 205.63671875 C85.48808784 212.57001594 88.09791647 219.31131881 91 226 C94.40591659 233.85585787 97.28809795 241.7992969 99.9375 249.9375 C101.62453727 255.05133174 103.60374153 259.98186468 105.71484375 264.93359375 C107.04199162 268.10019277 108.27980533 271.29077327 109.5 274.5 C120.34250873 304.53943423 120.34250873 304.53943423 141 328 C144.55607899 329.11388419 144.55607899 329.11388419 148.3125 329.75 C149.56675781 329.99234375 150.82101562 330.2346875 152.11328125 330.484375 C153.54220703 330.73960937 153.54220703 330.73960937 155 331 C155 332.65 155 334.3 155 336 C119.03 336 83.06 336 46 336 C46 334.35 46 332.7 46 331 C47.79244141 330.83564453 47.79244141 330.83564453 49.62109375 330.66796875 C64.94179046 329.44653878 64.94179046 329.44653878 78 322 C78.66 322 79.32 322 80 322 C80.28875 321.2575 80.5775 320.515 80.875 319.75 C82 317 82 317 83.0390625 315.328125 C89.78848333 298.97586964 79.05483611 276.96130471 73 262 C72.18323378 259.89748566 71.37082841 257.79327273 70.5625 255.6875 C69.94375 254.07875 69.94375 254.07875 69.3125 252.4375 C66.58153317 245.28496783 63.90991941 238.11006322 61.22949219 230.93847656 C60.46598091 228.89630218 59.70174974 226.85439812 58.9375 224.8125 C58.27041016 223.02779297 58.27041016 223.02779297 57.58984375 221.20703125 C55.42700958 215.45846468 53.20821049 209.73124253 51 204 C50.10792028 201.68104829 49.21599308 199.36203791 48.32421875 197.04296875 C47.88916016 195.91181641 47.45410156 194.78066406 47.00585938 193.61523438 C44.00292969 185.80761719 44.00292969 185.80761719 41 178 C41.01047363 179.24910156 41.02094727 180.49820313 41.03173828 181.78515625 C41.06841502 186.4967147 41.09107076 191.20826102 41.10986328 195.91992188 C41.11981376 197.94468317 41.13337897 199.96943051 41.15087891 201.99414062 C41.25343452 214.18016043 40.98672268 225.95823437 39 238 C38.82823242 239.04220703 38.65646484 240.08441406 38.47949219 241.15820312 C33.80331612 267.5720425 24.8895288 297.46102343 4 316 C3.34 316 2.68 316 2 316 C1.78085938 316.57105469 1.56171875 317.14210938 1.3359375 317.73046875 C-5.96956164 330.14127284 -25.84378362 337.42290247 -39 341 C-46.61611028 342.92918177 -53.97103784 343.38643904 -61.8125 343.375 C-62.96089355 343.37338867 -64.10928711 343.37177734 -65.29248047 343.37011719 C-73.55780522 343.25038091 -80.4070762 342.4546004 -88 339 C-89.08474609 338.566875 -89.08474609 338.566875 -90.19140625 338.125 C-104.70544395 331.7626821 -114.98180567 318.62433111 -120.625 304.18359375 C-126.8646249 286.48402286 -125.98601464 263.86538006 -118 247 C-116.37881251 243.64215583 -114.71802749 240.30931524 -113 237 C-112.34 237 -111.68 237 -111 237 C-110.76410156 236.11828125 -110.52820313 235.2365625 -110.28515625 234.328125 C-108.85740571 230.63072847 -107.16228388 228.60161973 -104.4375 225.75 C-101.35343369 222.63136653 -101.35343369 222.63136653 -99 219 C-98.34 219 -97.68 219 -97 219 C-96.67 218.01 -96.34 217.02 -96 216 C-95.34 216 -94.68 216 -94 216 C-94 215.34 -94 214.68 -94 214 C-93.34 214 -92.68 214 -92 214 C-92 213.34 -92 212.68 -92 212 C-89.8828125 210.0546875 -89.8828125 210.0546875 -87.125 207.875 C-85.76761719 206.78832031 -85.76761719 206.78832031 -84.3828125 205.6796875 C-82 204 -82 204 -80 204 C-80 203.34 -80 202.68 -80 202 C-77.9453125 200.30078125 -77.9453125 200.30078125 -75.125 198.3125 C-74.11179688 197.59449219 -73.09859375 196.87648437 -72.0546875 196.13671875 C-71.04664063 195.43160156 -70.03859375 194.72648438 -69 194 C-68.19820312 193.42894531 -67.39640625 192.85789063 -66.5703125 192.26953125 C-59.71490053 187.41072917 -52.70882443 182.77821142 -45.70654297 178.13525391 C-43.463438 176.64305961 -41.23277108 175.13259757 -39 173.625 C-36.54463195 171.98503403 -34.07698846 170.44077082 -31.5 169 C-18.65134007 161.79651789 0.15685744 151.2291342 6 137 C6.55610021 134.01630847 6.41845327 132.08609287 6 129 C4.45175129 126.8991456 3.61723845 126.09982949 1.01953125 125.6796875 C-5.81068088 126.28413105 -9.51450699 128.91526628 -14 134 C-16.19710138 136.89706289 -18.30042493 139.82712296 -20.3359375 142.83984375 C-20.88507813 143.55269531 -21.43421875 144.26554688 -22 145 C-22.66 145 -23.32 145 -24 145 C-24.66 146.65 -25.32 148.3 -26 150 C-26.66 150 -27.32 150 -28 150 C-28 150.66 -28 151.32 -28 152 C-29.86328125 153.47265625 -29.86328125 153.47265625 -32.3125 155.0625 C-33.11300781 155.58972656 -33.91351563 156.11695313 -34.73828125 156.66015625 C-39.04517429 159.21156266 -43.10881836 159.38536583 -48 159 C-50.70480217 158.14585195 -51.62461873 157.62580557 -53.07739258 155.20385742 C-56.46357551 147.11519023 -52.89284223 138.78176095 -49.8125 131.1875 C-49.39758301 130.1250708 -48.98266602 129.0626416 -48.55517578 127.96801758 C-47.38364494 124.97311119 -46.19314617 121.98634165 -45 119 C-44.11587659 116.73252138 -43.24494477 114.460487 -42.375 112.1875 C-41.81425781 110.73730469 -41.81425781 110.73730469 -41.2421875 109.2578125 C-37.08458821 98.35392001 -33.09641353 87.3843077 -29.23828125 76.37109375 C-28.2436282 73.6632528 -27.20315412 70.99124644 -26.125 68.31640625 C-23.88185189 62.74643582 -21.780475 57.1277874 -19.6875 51.5 C-16.69889569 43.49248285 -13.65930054 35.50910418 -10.53735352 27.55273438 C-8.00552499 21.0738615 -5.5994922 14.55067595 -3.22021484 8.0144043 C-1.0972369 2.1944738 -1.0972369 2.1944738 0 0 Z M-11 43 C-11.29132813 43.825 -11.58265625 44.65 -11.8828125 45.5 C-14.16014374 51.91663142 -16.47470248 58.31578658 -18.875 64.6875 C-21.16330466 70.76442822 -23.43587535 76.84687325 -25.6875 82.9375 C-25.97286621 83.70602295 -26.25823242 84.4745459 -26.55224609 85.26635742 C-27.95965259 89.07969609 -29.30644124 92.90085565 -30.56640625 96.765625 C-31.60204453 99.90519051 -32.77550563 102.84793561 -34.25 105.8125 C-37.08777136 111.88977542 -39.23133643 118.16285659 -41.39770508 124.50170898 C-43.45725198 130.5171724 -45.6939036 136.40796293 -48.15234375 142.2734375 C-49.10873524 145.34975667 -49.26661332 147.79612125 -49 151 C-47.48105194 153.09764165 -47.48105194 153.09764165 -45 154 C-37.04904052 153.42510116 -32.45724945 147.90224195 -27.421875 142.21875 C-25.18883623 139.62417161 -22.97676088 137.0122081 -20.76538086 134.39916992 C-15.25452811 127.96861435 -8.66300043 120.53933224 0.31640625 119.8125 C4.3699172 120.15088004 6.43938752 120.5077549 9.5625 123.25 C12.5888413 129.05164969 11.66697535 136.40693922 10.515625 142.609375 C7.21276856 152.92237573 -2.19227945 161.26418198 -11 167 C-12.33845164 168.3281953 -13.67196813 169.6613862 -15 171 C-16.76293354 172.24988168 -18.55798007 173.45513785 -20.375 174.625 C-25.67220102 178.09178846 -30.83579466 181.70319974 -35.96679688 185.41064453 C-40.06633657 188.36337136 -44.23879372 191.16390007 -48.5234375 193.84375 C-49.01070312 194.2253125 -49.49796875 194.606875 -50 195 C-50 195.66 -50 196.32 -50 197 C-51.08861328 197.37125 -51.08861328 197.37125 -52.19921875 197.75 C-55.27845264 199.12427454 -57.31466039 200.74655929 -59.8125 203 C-60.60269531 203.70125 -61.39289063 204.4025 -62.20703125 205.125 C-64.23037336 206.80853097 -64.23037336 206.80853097 -64 209 C-64.556875 209.20625 -65.11375 209.4125 -65.6875 209.625 C-68.31463703 211.18708148 -69.90500978 213.12086346 -71.78515625 215.50390625 C-73 217 -73 217 -74.9375 218.8125 C-78.13596811 222.20481466 -80.49388521 226.08225231 -83 230 C-83.76376953 231.09441406 -83.76376953 231.09441406 -84.54296875 232.2109375 C-94.26097141 246.85039653 -97.26603432 266.81552361 -93.83203125 283.88671875 C-92.77580222 287.83889967 -91.47031475 291.66062279 -90.0625 295.5 C-89.80968262 296.19504639 -89.55686523 296.89009277 -89.29638672 297.60620117 C-87.97281956 301.06199342 -86.76667878 303.54072998 -84 306 C-83.505 307.485 -83.505 307.485 -83 309 C-70.81343331 320.81057461 -58.3784414 325.43553732 -41.72070312 325.36352539 C-28.89925566 325.09934721 -18.68419435 321.08120326 -8 314 C-6.90751953 313.30777344 -6.90751953 313.30777344 -5.79296875 312.6015625 C0.29193107 308.44894842 4.56351834 302.80858939 9 297 C9.47711426 296.40461426 9.95422852 295.80922852 10.44580078 295.19580078 C14.28986807 290.29525546 17.05265568 285.2841575 19.625 279.625 C20.17800781 278.44550781 20.17800781 278.44550781 20.7421875 277.2421875 C33.32719218 250.12238869 37.00325191 221.66898365 36 192 C35.94634277 190.33807617 35.94634277 190.33807617 35.89160156 188.64257812 C35.13262735 168.42173234 32.85868992 148.93682289 24.14868164 130.47363281 C22.77667427 127.51907835 21.67250675 124.52095032 20.625 121.4375 C18.71293735 115.95305698 16.68324613 110.53206678 14.5625 105.125 C12.10570288 98.85451915 9.69460654 92.57049131 7.34448242 86.25927734 C5.91163979 82.41658937 4.45958119 78.58205559 2.98828125 74.75390625 C-3.57214782 57.67461372 -3.57214782 57.67461372 -6.2109375 49.27734375 C-6.9765095 47.06779684 -7.90420105 45.06296062 -9 43 C-9.66 43 -10.32 43 -11 43 Z " fill="#FA0303" transform="translate(194,13)"/>
<path d="M0 0 C0.74458969 -0.00570007 1.48917938 -0.01140015 2.2563324 -0.01727295 C3.82004416 -0.02663129 5.38377483 -0.03321989 6.94750977 -0.03710938 C9.27983091 -0.04675603 11.61124596 -0.07784331 13.94335938 -0.109375 C42.58801388 -0.30958151 72.59870962 7.99562461 93.74609375 28.203125 C93.74609375 28.863125 93.74609375 29.523125 93.74609375 30.203125 C94.40609375 30.203125 95.06609375 30.203125 95.74609375 30.203125 C95.74609375 30.863125 95.74609375 31.523125 95.74609375 32.203125 C96.34421875 32.43 96.94234375 32.656875 97.55859375 32.890625 C100.33805111 34.55829941 101.15002013 36.40999616 102.74609375 39.203125 C103.37773438 39.81800781 104.009375 40.43289062 104.66015625 41.06640625 C120.29287404 57.07969582 123.04471095 85.24660998 123.06079102 106.3347168 C122.8163003 123.86426712 119.42179149 144.44589918 107.74609375 158.203125 C106.73442687 159.94192745 105.72336258 161.68131115 104.7421875 163.4375 C101.95680043 168.37473511 99.26273753 171.78810165 94.74609375 175.203125 C93.96234375 175.986875 93.17859375 176.770625 92.37109375 177.578125 C90.31218624 179.63703251 88.24219411 181.59423752 86.05859375 183.515625 C85.47722656 184.02738281 84.89585937 184.53914062 84.296875 185.06640625 C82.74609375 186.203125 82.74609375 186.203125 80.74609375 186.203125 C80.74609375 186.863125 80.74609375 187.523125 80.74609375 188.203125 C45.20138517 209.23894084 4.64899731 212.86549073 -35.41064453 202.65332031 C-38.19977621 201.88288847 -40.94054617 201.0137492 -43.67578125 200.0703125 C-46.1158719 199.24955474 -48.47962342 198.69252677 -51.00390625 198.203125 C-54.23247843 197.54957112 -57.02549942 196.5105879 -60.01953125 195.140625 C-60.81649414 194.77839844 -61.61345703 194.41617188 -62.43457031 194.04296875 C-63.03495117 193.76582031 -63.63533203 193.48867187 -64.25390625 193.203125 C-64.14508399 203.46287919 -64.03222123 213.7225809 -63.91456699 223.98223782 C-63.86002108 228.74912659 -63.80673192 233.51602167 -63.7565918 238.28295898 C-63.51202991 264.09570355 -63.51202991 264.09570355 -62.796875 289.8984375 C-62.76187393 290.86506821 -62.72687286 291.83169891 -62.69081116 292.82762146 C-62.16041474 305.08164388 -59.64497692 316.39335152 -51.87890625 326.203125 C-46.68165928 330.16293222 -40.56251558 330.53906086 -34.25390625 331.203125 C-34.25390625 332.853125 -34.25390625 334.503125 -34.25390625 336.203125 C-63.95390625 336.203125 -93.65390625 336.203125 -124.25390625 336.203125 C-124.25390625 334.553125 -124.25390625 332.903125 -124.25390625 331.203125 C-123.51785156 331.08195312 -122.78179687 330.96078125 -122.0234375 330.8359375 C-121.04761719 330.66835938 -120.07179688 330.50078125 -119.06640625 330.328125 C-118.10347656 330.16570312 -117.14054687 330.00328125 -116.1484375 329.8359375 C-110.75296003 328.65635943 -106.39597478 326.90653006 -103.25390625 322.203125 C-91.14124927 295.08574408 -94.94939452 261.0909595 -94.98525524 231.95311975 C-94.99041755 226.42202231 -94.98559592 220.89093056 -94.98248291 215.35983276 C-94.9788718 206.07955716 -94.98356581 196.79931367 -94.99316406 187.51904297 C-95.00403655 176.88593757 -95.00052008 166.25290899 -94.98951125 155.61980546 C-94.98034825 146.38985969 -94.97919671 137.15993665 -94.98438859 127.92998779 C-94.98746024 122.46153313 -94.98805408 116.99311419 -94.98131561 111.52466202 C-94.96051042 91.80350664 -94.97273762 72.10111673 -96.08300781 52.40576172 C-96.15207211 51.09462465 -96.2211364 49.78348759 -96.29229355 48.43261909 C-96.87434032 39.53061628 -98.23061764 31.11953807 -102.69140625 23.265625 C-103.27728516 22.20021484 -103.27728516 22.20021484 -103.875 21.11328125 C-105.41532188 18.97952092 -107.15766349 17.76529317 -109.25390625 16.203125 C-109.25390625 15.543125 -109.25390625 14.883125 -109.25390625 14.203125 C-109.83398438 14.14253906 -110.4140625 14.08195312 -111.01171875 14.01953125 C-115.45483488 13.54295939 -119.85296048 12.99303834 -124.25390625 12.203125 C-124.29662725 10.53700595 -124.29454457 8.86929615 -124.25390625 7.203125 C-122.43710482 5.38632357 -119.60556161 6.06862974 -117.16235352 6.0612793 C-115.85069717 6.05424484 -114.53904083 6.04721039 -113.18763733 6.03996277 C-112.47841692 6.03814688 -111.76919651 6.03633099 -111.03848457 6.03446007 C-108.79004446 6.02724664 -106.5418167 6.01152351 -104.29344177 5.99311829 C-97.895129 5.94102695 -91.49690654 5.8931869 -85.09838867 5.87719727 C-63.68174555 5.81576127 -42.85710716 4.51950113 -21.62910461 1.64877319 C-14.41246607 0.69591603 -7.27952742 0.04532821 0 0 Z M-47.25390625 11.203125 C-48.1771167 11.46101807 -49.10032715 11.71891113 -50.05151367 11.98461914 C-52.13389036 12.58204915 -54.19400924 13.22051206 -56.25390625 13.890625 C-56.93195313 14.10267578 -57.61 14.31472656 -58.30859375 14.53320312 C-61.54145262 15.39365053 -61.54145262 15.39365053 -64.25390625 17.203125 C-64.35090685 19.40537954 -64.37577334 21.61081164 -64.37416077 23.81520081 C-64.37501519 24.51434268 -64.37586962 25.21348456 -64.37674993 25.93381256 C-64.37840676 28.29387251 -64.37288009 30.65386253 -64.36743164 33.01391602 C-64.36714979 34.69877114 -64.36730747 36.38362639 -64.36787415 38.06848145 C-64.36816219 42.65712953 -64.36226436 47.2457517 -64.35530019 51.83439374 C-64.34906778 56.62437132 -64.34846294 61.41434943 -64.34727478 66.20433044 C-64.34416113 75.28141532 -64.33594729 84.35848821 -64.32592529 93.4355678 C-64.3147652 103.76671081 -64.30925397 114.09785439 -64.30422986 124.42900193 C-64.2937647 145.68704965 -64.27616461 166.94508657 -64.25390625 188.203125 C-61.74511194 188.99191705 -59.23594641 189.77949385 -56.7265625 190.56640625 C-55.67692322 190.89662781 -55.67692322 190.89662781 -54.6060791 191.23352051 C-32.79521904 198.06712812 -11.09523862 200.09145154 11.74609375 199.203125 C12.45282227 199.17798828 13.15955078 199.15285156 13.88769531 199.12695312 C30.29831983 198.35040015 46.26646244 191.81876766 58.74609375 181.203125 C59.40222656 180.69394531 60.05835938 180.18476563 60.734375 179.66015625 C62.12364124 178.57109926 63.44629196 177.39753746 64.74609375 176.203125 C64.74609375 175.543125 64.74609375 174.883125 64.74609375 174.203125 C65.40609375 174.203125 66.06609375 174.203125 66.74609375 174.203125 C68.27197482 172.38267229 69.71760206 170.49452063 71.12109375 168.578125 C71.89195312 167.53398437 72.6628125 166.48984375 73.45703125 165.4140625 C90.60540378 141.35951947 96.48502249 113.08657245 92.25976562 83.83642578 C89.50655061 69.13216771 84.1847826 54.91033992 74.74609375 43.203125 C74.41609375 42.213125 74.08609375 41.223125 73.74609375 40.203125 C70.54331267 36.71774559 67.01778573 33.66585358 63.39453125 30.6328125 C61.74609375 29.203125 61.74609375 29.203125 60.25 27.69921875 C48.59977992 16.1095193 33.14894965 12.20313136 17.74609375 8.203125 C16.81895821 7.94349472 16.81895821 7.94349472 15.87309265 7.67861938 C13.69442226 7.19157375 11.7526072 7.05654813 9.52270508 7.02612305 C8.69696487 7.01328781 7.87122467 7.00045258 7.02046204 6.98722839 C5.6877552 6.97614799 5.6877552 6.97614799 4.328125 6.96484375 C3.39747726 6.956772 2.46682953 6.94870026 1.50798035 6.94038391 C-0.46821237 6.92655457 -2.44442886 6.91582727 -4.4206543 6.90795898 C-6.41128706 6.89653613 -8.40189161 6.87624196 -10.39233398 6.84643555 C-23.31160489 6.65322396 -34.84507126 7.53972658 -47.25390625 11.203125 Z " fill="#0A0A0A" transform="translate(481.25390625,12.796875)"/>
<path d="M0 0 C1.5 1.375 1.5 1.375 3 3 C3 3.66 3 4.32 3 5 C3.99 5.33 4.98 5.66 6 6 C6 7.98 6 9.96 6 12 C5.01 11.505 5.01 11.505 4 11 C4 10.01 4 9.02 4 8 C3.34 8 2.68 8 2 8 C1.9071875 9.3303125 1.9071875 9.3303125 1.8125 10.6875 C0.93599236 16.76218493 -1.70695448 22.35037847 -4 28 C-5.00142985 30.4786046 -6.00207837 32.95748471 -7 35.4375 C-7.25136719 36.06156738 -7.50273437 36.68563477 -7.76171875 37.32861328 C-10.9678008 45.34175263 -13.88491325 53.46239474 -16.5 61.6875 C-17.53754883 64.85778809 -18.81466293 67.8020203 -20.25 70.8125 C-23.08777136 76.88977542 -25.23133643 83.16285659 -27.39770508 89.50170898 C-29.45725198 95.5171724 -31.6939036 101.40796293 -34.15234375 107.2734375 C-35.11821056 110.3802349 -35.36886041 112.76677908 -35 116 C-32.19773912 118.29822167 -32.19773912 118.29822167 -29.1015625 117.85546875 C-20.27131865 115.4199229 -14.0367519 105.82930968 -8.33276367 99.0390625 C3.85454584 84.61705131 3.85454584 84.61705131 13.26171875 83.8046875 C16.52616773 83.9018116 18.97886289 84.28449325 21.68359375 86.1796875 C25.68591007 90.73756614 25.68062768 95.90324483 25.39453125 101.73828125 C23.88717958 114.20005002 15.39783945 122.46428076 6.24609375 130.3828125 C4 132 4 132 2 132 C1.67 132.99 1.34 133.98 1 135 C-1.19991788 136.62240222 -3.38277713 138.10411373 -5.6875 139.5625 C-7.05729396 140.45111754 -8.4257521 141.34179712 -9.79296875 142.234375 C-10.84170166 142.91790039 -10.84170166 142.91790039 -11.91162109 143.61523438 C-15.16295196 145.77113204 -18.33474744 148.03277227 -21.5 150.3125 C-22.05002686 150.70832275 -22.60005371 151.10414551 -23.16674805 151.51196289 C-26.54021322 153.94209449 -26.54021322 153.94209449 -29.890625 156.40380859 C-34.78498462 160 -34.78498462 160 -37 160 C-37 160.66 -37 161.32 -37 162 C-38.39390126 162.95193257 -39.7934569 163.8965269 -41.21875 164.80078125 C-48.51821185 169.71511193 -54.43420851 176.26246293 -60 183 C-60.48597656 183.47050781 -60.97195312 183.94101563 -61.47265625 184.42578125 C-64.50201734 187.54811506 -66.65130613 191.35724421 -69 195 C-69.51046875 195.73089844 -70.0209375 196.46179688 -70.546875 197.21484375 C-80.2589486 211.8580475 -83.26628979 231.81425364 -79.83203125 248.88671875 C-78.77580222 252.83889967 -77.47031475 256.66062279 -76.0625 260.5 C-75.80968262 261.19504639 -75.55686523 261.89009277 -75.29638672 262.60620117 C-73.96518826 266.08191851 -72.711352 268.47480052 -70 271 C-70 271.99 -70 272.98 -70 274 C-69.40445313 274.27199219 -68.80890625 274.54398437 -68.1953125 274.82421875 C-66.05332541 275.9714396 -64.62459823 277.1464253 -62.875 278.8125 C-51.45265624 288.81622291 -37.93450444 289.84414105 -23.44433594 289.19091797 C-10.19494327 288.15605729 1.14374862 281.5593762 11 273 C11.66 273 12.32 273 13 273 C13.26167969 272.41863281 13.52335937 271.83726562 13.79296875 271.23828125 C15.06835932 268.8732366 16.49778575 267.16316451 18.3125 265.1875 C24.0543295 258.929551 28.02096824 252.38245121 31.5625 244.6875 C31.93568359 243.89666016 32.30886719 243.10582031 32.69335938 242.29101562 C45.35298589 215.18840651 49.00353965 186.67749288 48 157 C47.94634277 155.33807617 47.94634277 155.33807617 47.89160156 153.64257812 C47.16687853 134.33426367 44.34907733 116.28412174 38 98 C39.9375 98.5625 39.9375 98.5625 42 100 C42.625 103.1875 42.625 103.1875 43 107 C43.85296678 110.78059045 43.85296678 110.78059045 45 114 C45.66 114.33 46.32 114.66 47 115 C47.48657227 117.42651367 47.48657227 117.42651367 47.81640625 120.66796875 C48.0023938 122.45908081 48.0023938 122.45908081 48.19213867 124.28637695 C48.37546753 126.21743286 48.37546753 126.21743286 48.5625 128.1875 C48.69180908 129.48840576 48.82111816 130.78931152 48.9543457 132.12963867 C50.04940874 143.41016359 50.6147331 154.67315308 51 166 C51 156.1 51 146.2 51 136 C51.66 136 52.32 136 53 136 C53 136.66 53 137.32 53 138 C53.99 138 54.98 138 56 138 C56.33 141.3 56.66 144.6 57 148 C55 145 55 145 54 143 C54.01047363 144.24910156 54.02094727 145.49820313 54.03173828 146.78515625 C54.06841502 151.4967147 54.09107076 156.20826102 54.10986328 160.91992188 C54.11981376 162.94468317 54.13337897 164.96943051 54.15087891 166.99414062 C54.25343452 179.18016043 53.98672268 190.95823437 52 203 C51.82823242 204.04220703 51.65646484 205.08441406 51.47949219 206.15820312 C46.80331612 232.5720425 37.8895288 262.46102343 17 281 C16.34 281 15.68 281 15 281 C14.78085938 281.57105469 14.56171875 282.14210938 14.3359375 282.73046875 C7.03043836 295.14127284 -12.84378362 302.42290247 -26 306 C-33.61611028 307.92918177 -40.97103784 308.38643904 -48.8125 308.375 C-49.96089355 308.37338867 -51.10928711 308.37177734 -52.29248047 308.37011719 C-60.55780522 308.25038091 -67.4070762 307.4546004 -75 304 C-76.08474609 303.566875 -76.08474609 303.566875 -77.19140625 303.125 C-91.70544395 296.7626821 -101.98180567 283.62433111 -107.625 269.18359375 C-113.8646249 251.48402286 -112.98601464 228.86538006 -105 212 C-103.37881251 208.64215583 -101.71802749 205.30931524 -100 202 C-99.34 202 -98.68 202 -98 202 C-97.76410156 201.11828125 -97.52820313 200.2365625 -97.28515625 199.328125 C-95.85740571 195.63072847 -94.16228388 193.60161973 -91.4375 190.75 C-88.35343369 187.63136653 -88.35343369 187.63136653 -86 184 C-85.34 184 -84.68 184 -84 184 C-83.67 183.01 -83.34 182.02 -83 181 C-82.34 181 -81.68 181 -81 181 C-81 180.34 -81 179.68 -81 179 C-80.34 179 -79.68 179 -79 179 C-79 178.34 -79 177.68 -79 177 C-76.8828125 175.0546875 -76.8828125 175.0546875 -74.125 172.875 C-72.76761719 171.78832031 -72.76761719 171.78832031 -71.3828125 170.6796875 C-69 169 -69 169 -67 169 C-67 168.34 -67 167.68 -67 167 C-64.9453125 165.30078125 -64.9453125 165.30078125 -62.125 163.3125 C-61.11179688 162.59449219 -60.09859375 161.87648437 -59.0546875 161.13671875 C-58.04664063 160.43160156 -57.03859375 159.72648438 -56 159 C-55.19820312 158.42894531 -54.39640625 157.85789063 -53.5703125 157.26953125 C-46.71490053 152.41072917 -39.70882443 147.77821142 -32.70654297 143.13525391 C-30.463438 141.64305961 -28.23277108 140.13259757 -26 138.625 C-23.54463195 136.98503403 -21.07698846 135.44077082 -18.5 134 C-5.65134007 126.79651789 13.15685744 116.2291342 19 102 C19.55610021 99.01630847 19.41845327 97.08609287 19 94 C17.45175129 91.8991456 16.61723845 91.09982949 14.01953125 90.6796875 C7.18931912 91.28413105 3.48549301 93.91526628 -1 99 C-3.19710138 101.89706289 -5.30042493 104.82712296 -7.3359375 107.83984375 C-7.88507813 108.55269531 -8.43421875 109.26554687 -9 110 C-9.66 110 -10.32 110 -11 110 C-11.66 111.65 -12.32 113.3 -13 115 C-13.66 115 -14.32 115 -15 115 C-15 115.66 -15 116.32 -15 117 C-16.86328125 118.47265625 -16.86328125 118.47265625 -19.3125 120.0625 C-20.11300781 120.58972656 -20.91351563 121.11695313 -21.73828125 121.66015625 C-26.04517429 124.21156266 -30.10881836 124.38536583 -35 124 C-37.70480217 123.14585195 -38.62461873 122.62580557 -40.07739258 120.20385742 C-43.46357551 112.11519023 -39.89284223 103.78176095 -36.8125 96.1875 C-36.39758301 95.1250708 -35.98266602 94.0626416 -35.55517578 92.96801758 C-34.38364494 89.97311119 -33.19314617 86.98634165 -32 84 C-31.11587659 81.73252138 -30.24494477 79.460487 -29.375 77.1875 C-28.81425781 75.73730469 -28.81425781 75.73730469 -28.2421875 74.2578125 C-24.08458821 63.35392001 -20.09641353 52.3843077 -16.23828125 41.37109375 C-15.25020422 38.68115534 -14.21656005 36.02776831 -13.14453125 33.37109375 C-10.34907829 26.43176215 -7.77562662 19.41035365 -5.1796875 12.39453125 C-4.60734375 10.85732422 -4.60734375 10.85732422 -4.0234375 9.2890625 C-3.68231934 8.36818848 -3.34120117 7.44731445 -2.98974609 6.49853516 C-2.10186433 4.25714839 -1.11697322 2.1346738 0 0 Z " fill="#FA0303" transform="translate(181,48)"/>
<path d="M0 0 C1.5 1.375 1.5 1.375 3 3 C3 3.66 3 4.32 3 5 C3.99 5.33 4.98 5.66 6 6 C6 7.98 6 9.96 6 12 C5.34 11.67 4.68 11.34 4 11 C4 10.01 4 9.02 4 8 C3.34 8 2.68 8 2 8 C1.9071875 9.3303125 1.9071875 9.3303125 1.8125 10.6875 C0.93599236 16.76218493 -1.70695448 22.35037847 -4 28 C-5.00142985 30.4786046 -6.00207837 32.95748471 -7 35.4375 C-7.37705078 36.37360107 -7.37705078 36.37360107 -7.76171875 37.32861328 C-10.9678008 45.34175263 -13.88491325 53.46239474 -16.5 61.6875 C-17.53754883 64.85778809 -18.81466293 67.8020203 -20.25 70.8125 C-23.08777136 76.88977542 -25.23133643 83.16285659 -27.39770508 89.50170898 C-29.45725198 95.5171724 -31.6939036 101.40796293 -34.15234375 107.2734375 C-35.11821056 110.3802349 -35.36886041 112.76677908 -35 116 C-32.19773912 118.29822167 -32.19773912 118.29822167 -29.1015625 117.85546875 C-20.27131865 115.4199229 -14.0367519 105.82930968 -8.33276367 99.0390625 C-2.86945076 92.57398012 2.59417121 86.35953089 11 84 C14.12018325 83.8815772 17.05745985 83.90328952 20 85 C21.26171875 87.05859375 21.26171875 87.05859375 22 89 C19.69 88.34 17.38 87.68 15 87 C15 87.66 15 88.32 15 89 C16.32 89 17.64 89 19 89 C19.33 90.65 19.66 92.3 20 94 C19.525625 93.484375 19.05125 92.96875 18.5625 92.4375 C15.21926536 90.56202691 13.09974818 90.66292827 9.36328125 91.25 C1.56618709 93.72444972 -2.98469336 101.39965571 -7.3359375 107.83984375 C-7.88507813 108.55269531 -8.43421875 109.26554687 -9 110 C-9.66 110 -10.32 110 -11 110 C-11.66 111.65 -12.32 113.3 -13 115 C-13.66 115 -14.32 115 -15 115 C-15 115.66 -15 116.32 -15 117 C-16.86328125 118.47265625 -16.86328125 118.47265625 -19.3125 120.0625 C-20.11300781 120.58972656 -20.91351563 121.11695313 -21.73828125 121.66015625 C-26.04517429 124.21156266 -30.10881836 124.38536583 -35 124 C-37.70480217 123.14585195 -38.62461873 122.62580557 -40.07739258 120.20385742 C-43.46357551 112.11519023 -39.89284223 103.78176095 -36.8125 96.1875 C-36.39758301 95.1250708 -35.98266602 94.0626416 -35.55517578 92.96801758 C-34.38364494 89.97311119 -33.19314617 86.98634165 -32 84 C-31.11587659 81.73252138 -30.24494477 79.460487 -29.375 77.1875 C-29.00117188 76.22070312 -28.62734375 75.25390625 -28.2421875 74.2578125 C-24.08458821 63.35392001 -20.09641353 52.3843077 -16.23828125 41.37109375 C-15.25020422 38.68115534 -14.21656005 36.02776831 -13.14453125 33.37109375 C-10.34907829 26.43176215 -7.77562662 19.41035365 -5.1796875 12.39453125 C-4.60734375 10.85732422 -4.60734375 10.85732422 -4.0234375 9.2890625 C-3.68231934 8.36818848 -3.34120117 7.44731445 -2.98974609 6.49853516 C-2.10186433 4.25714839 -1.11697322 2.1346738 0 0 Z " fill="#E83939" transform="translate(181,48)"/>
<path d="M0 0 C1.9375 0.5625 1.9375 0.5625 4 2 C4.625 5.1875 4.625 5.1875 5 9 C5.85296678 12.78059045 5.85296678 12.78059045 7 16 C7.66 16.33 8.32 16.66 9 17 C9.48657227 19.42651367 9.48657227 19.42651367 9.81640625 22.66796875 C10.0023938 24.45908081 10.0023938 24.45908081 10.19213867 26.28637695 C10.31435791 27.57374756 10.43657715 28.86111816 10.5625 30.1875 C10.75646362 32.13885864 10.75646362 32.13885864 10.9543457 34.12963867 C12.04940874 45.41016359 12.6147331 56.67315308 13 68 C13 58.1 13 48.2 13 38 C13.66 38 14.32 38 15 38 C15 38.66 15 39.32 15 40 C15.99 40 16.98 40 18 40 C18.495 44.95 18.495 44.95 19 50 C17 47 17 47 16 45 C16.01571045 46.87365234 16.01571045 46.87365234 16.03173828 48.78515625 C16.06841502 53.4967147 16.09107076 58.20826102 16.10986328 62.91992188 C16.11981376 64.94468317 16.13337897 66.96943051 16.15087891 68.99414062 C16.25343452 81.18016043 15.98672268 92.95823437 14 105 C13.82823242 106.04220703 13.65646484 107.08441406 13.47949219 108.15820312 C8.80331612 134.5720425 -0.1104712 164.46102343 -21 183 C-21.66 183 -22.32 183 -23 183 C-23.33 181.68 -23.66 180.36 -24 179 C-23.01 178.67 -22.02 178.34 -21 178 C-21 177.01 -21 176.02 -21 175 C-20.01 175 -19.02 175 -18 175 C-18 174.01 -18 173.02 -18 172 C-17.030625 171.7525 -16.06125 171.505 -15.0625 171.25 C-14.051875 170.8375 -13.04125 170.425 -12 170 C-11.0950739 168.0480428 -11.0950739 168.0480428 -11 166 C-10.505 165.01 -10.505 165.01 -10 164 C-9.34 164 -8.68 164 -8 164 C-7.67 161.69 -7.34 159.38 -7 157 C-7.99 157 -8.98 157 -10 157 C-10.103125 157.598125 -10.20625 158.19625 -10.3125 158.8125 C-11.08876455 161.28243264 -12.07088921 162.32251235 -14 164 C-14.66 163.67 -15.32 163.34 -16 163 C-15.26910156 162.03707031 -14.53820312 161.07414063 -13.78515625 160.08203125 C-10.77224528 155.85928636 -8.60104761 151.38840187 -6.4375 146.6875 C-6.06431641 145.89666016 -5.69113281 145.10582031 -5.30664062 144.29101562 C7.35298589 117.18840651 11.00353965 88.67749288 10 59 C9.96422852 57.89205078 9.92845703 56.78410156 9.89160156 55.64257812 C9.16687853 36.33426367 6.34907733 18.28412174 0 0 Z " fill="#E45654" transform="translate(219,146)"/>
<path d="M0 0 C3.34056072 0.30368734 5.47829963 0.60027993 8.171875 2.6640625 C11.66852942 7.13200982 10.57527105 12.60996042 10 18 C7.96446441 28.99845841 -2.19490929 38.66033469 -11 45 C-11.66 45 -12.32 45 -13 45 C-13.33 45.99 -13.66 46.98 -14 48 C-16.19991788 49.62240222 -18.38277713 51.10411373 -20.6875 52.5625 C-22.05729396 53.45111754 -23.4257521 54.34179712 -24.79296875 55.234375 C-25.49212402 55.69005859 -26.1912793 56.14574219 -26.91162109 56.61523438 C-30.16295196 58.77113204 -33.33474744 61.03277227 -36.5 63.3125 C-37.32504028 63.90623413 -37.32504028 63.90623413 -38.16674805 64.51196289 C-41.54021322 66.94209449 -41.54021322 66.94209449 -44.890625 69.40380859 C-49.78498462 73 -49.78498462 73 -52 73 C-52 72.01 -52 71.02 -52 70 C-50.68 70 -49.36 70 -48 70 C-48 69.34 -48 68.68 -48 68 C-47.34 68 -46.68 68 -46 68 C-46 67.34 -46 66.68 -46 66 C-45.01 66 -44.02 66 -43 66 C-43 65.34 -43 64.68 -43 64 C-42.01 64 -41.02 64 -40 64 C-41.05270463 62.84188612 -41.05270463 62.84188612 -43 62 C-43.66 61.01 -44.32 60.02 -45 59 C-46.32 59.66 -47.64 60.32 -49 61 C-49.99 60.34 -50.98 59.68 -52 59 C-44.51354817 54.1802551 -37.02389355 49.36668264 -29.5 44.60546875 C-9.53505304 32.86176158 -9.53505304 32.86176158 4 15 C4.38672631 10.63049495 4.29994785 6.37257316 4 2 C2.68 2 1.36 2 0 2 C0 1.34 0 0.68 0 0 Z " fill="#F1191A" transform="translate(196,135)"/>
<path d="M0 0 C1.26171875 2.05859375 1.26171875 2.05859375 2 4 C-0.31 3.34 -2.62 2.68 -5 2 C-5 2.66 -5 3.32 -5 4 C-3.68 4 -2.36 4 -1 4 C-0.505 6.475 -0.505 6.475 0 9 C-0.474375 8.484375 -0.94875 7.96875 -1.4375 7.4375 C-4.78073464 5.56202691 -6.90025182 5.66292827 -10.63671875 6.25 C-18.43381291 8.72444972 -22.98469336 16.39965571 -27.3359375 22.83984375 C-28.15964844 23.90912109 -28.15964844 23.90912109 -29 25 C-29.66 25 -30.32 25 -31 25 C-31.99 27.475 -31.99 27.475 -33 30 C-33.66 30 -34.32 30 -35 30 C-35 30.66 -35 31.32 -35 32 C-37.65567996 34.76715294 -40.39545197 36.68176529 -44 38 C-48.01988144 37.34032715 -51.39877284 35.87129187 -55 34 C-54.67 33.34 -54.34 32.68 -54 32 C-53.319375 32.2475 -52.63875 32.495 -51.9375 32.75 C-47.74299437 33.1069792 -45.23820826 31.43707149 -42 29 C-37.3279912 24.92990645 -33.41856339 20.33516818 -29.5625 15.5 C-22.39413552 6.61665676 -12.7308272 -4.74489079 0 0 Z " fill="#E83231" transform="translate(201,133)"/>
<path d="M0 0 C0.66 0.33 1.32 0.66 2 1 C1.34 3.31 0.68 5.62 0 8 C-0.66 8 -1.32 8 -2 8 C-2.28875 8.969375 -2.5775 9.93875 -2.875 10.9375 C-4 14 -4 14 -6 15 C-6.66 15.99 -7.32 16.98 -8 18 C-8 17.34 -8 16.68 -8 16 C-8.66 16 -9.32 16 -10 16 C-10 16.99 -10 17.98 -10 19 C-10.99 19 -11.98 19 -13 19 C-12.67 20.32 -12.34 21.64 -12 23 C-13.32 23 -14.64 23 -16 23 C-15.67 23.845625 -15.34 24.69125 -15 25.5625 C-15 29 -15 29 -16.5390625 30.88671875 C-20.05255435 34.02517495 -23.39085475 36.7036779 -28 38 C-28 37.01 -28 36.02 -28 35 C-26.68 35 -25.36 35 -24 35 C-24 34.34 -24 33.68 -24 33 C-28.95 33 -33.9 33 -39 33 C-36.04677047 30.78507785 -33.2959621 28.95250152 -30.125 27.125 C-27.03879543 25.30423034 -24.207856 23.47269781 -21.5 21.125 C-19 19 -19 19 -17 19 C-16.73058594 18.41734375 -16.46117187 17.8346875 -16.18359375 17.234375 C-14.99412977 14.98891824 -13.69416509 13.19305156 -12.0625 11.25 C-11.55847656 10.63640625 -11.05445313 10.0228125 -10.53515625 9.390625 C-9 8 -9 8 -6 8 C-5.67 7.01 -5.34 6.02 -5 5 C-4.34 4.67 -3.68 4.34 -3 4 C-2.67 3.01 -2.34 2.02 -2 1 C-1.34 0.67 -0.68 0.34 0 0 Z " fill="#EE2121" transform="translate(211,302)"/>
<path d="M0 0 C3.34056072 0.30368734 5.47829963 0.60027993 8.171875 2.6640625 C11.66852942 7.13200982 10.57527105 12.60996042 10 18 C8.19299174 27.76367368 0.73412402 34.24469949 -6 41 C-6.495 39.515 -6.495 39.515 -7 38 C-6.67 37.34 -6.34 36.68 -6 36 C-5.01 36 -4.02 36 -3 36 C-3 35.34 -3 34.68 -3 34 C-2.34 34 -1.68 34 -1 34 C-1 32.68 -1 31.36 -1 30 C-1.7425 30.350625 -2.485 30.70125 -3.25 31.0625 C-6.21122875 32.0720098 -7.12062561 31.87980884 -10 31 C-9.40832031 30.5153125 -8.81664062 30.030625 -8.20703125 29.53125 C0.71362934 22.14791384 0.71362934 22.14791384 4.296875 11.60546875 C4.31082703 8.38603697 4.22028109 5.21120874 4 2 C2.68 2 1.36 2 0 2 C0 1.34 0 0.68 0 0 Z " fill="#E43232" transform="translate(196,135)"/>
<path d="M0 0 C-0.0625 1.75 -0.0625 1.75 -1 4 C-8.4953306 9.20084164 -16.06575463 10.32629149 -25 10.125 C-26.16208984 10.11146484 -26.16208984 10.11146484 -27.34765625 10.09765625 C-29.23190843 10.07439388 -31.11599832 10.0385364 -33 10 C-33 10.99 -33 11.98 -33 13 C1.98 13 36.96 13 73 13 C73 12.34 73 11.68 73 11 C72.28972656 10.95101563 71.57945312 10.90203125 70.84765625 10.8515625 C69.92855469 10.77679688 69.00945312 10.70203125 68.0625 10.625 C66.68771484 10.52058594 66.68771484 10.52058594 65.28515625 10.4140625 C64.15400391 10.20910156 64.15400391 10.20910156 63 10 C62.505 9.01 62.505 9.01 62 8 C66.29 8.33 70.58 8.66 75 9 C75 10.65 75 12.3 75 14 C39.03 14 3.06 14 -34 14 C-34 12.35 -34 10.7 -34 9 C-32.80503906 8.89042969 -31.61007813 8.78085937 -30.37890625 8.66796875 C-20.74375197 7.73047239 -7.61745824 0 0 0 Z " fill="#C12C2A" transform="translate(274,335)"/>
<path d="M0 0 C0.66 0 1.32 0 2 0 C1.75107336 7.2437651 0.82312215 12.9873958 -2.14453125 19.59765625 C-3.52707039 23.48012918 -3.26334613 26.91813501 -3 31 C-2.36191406 31.12117188 -1.72382813 31.24234375 -1.06640625 31.3671875 C-0.24011719 31.53476563 0.58617187 31.70234375 1.4375 31.875 C2.26121094 32.03742188 3.08492187 32.19984375 3.93359375 32.3671875 C4.61550781 32.57601562 5.29742187 32.78484375 6 33 C6.33 33.66 6.66 34.32 7 35 C3.22561386 36.88719307 -1.4238055 36.49774563 -5.375 35.25 C-7.97764177 33.24796787 -8.87216962 30.96121808 -9.30078125 27.73828125 C-9.33030347 21.6271808 -8.29681958 16.66001968 -6 11 C-5.34 11 -4.68 11 -4 11 C-2.03810791 7.3321148 -0.60698743 4.12751449 0 0 Z " fill="#E53E3C" transform="translate(149,136)"/>
<path d="M0 0 C1.48237767 4.43738051 -0.16881628 6.80353731 -2 11 C-1.67 11.99 -1.34 12.98 -1 14 C-0.34 14 0.32 14 1 14 C1 12.68 1 11.36 1 10 C1.66 10 2.32 10 3 10 C3 8.35 3 6.7 3 5 C3.99 5 4.98 5 6 5 C5.38239399 9.37265055 3.74767433 12.95761937 1.6875 16.8125 C1.34501221 17.45541992 1.00252441 18.09833984 0.6496582 18.76074219 C-4.20993694 27.55702311 -10.42629271 37.27850889 -18 44 C-18.66 44 -19.32 44 -20 44 C-20.33 42.68 -20.66 41.36 -21 40 C-19.515 39.505 -19.515 39.505 -18 39 C-18 38.01 -18 37.02 -18 36 C-17.01 36 -16.02 36 -15 36 C-15 35.01 -15 34.02 -15 33 C-14.030625 32.7525 -13.06125 32.505 -12.0625 32.25 C-11.051875 31.8375 -10.04125 31.425 -9 31 C-8.0950739 29.0480428 -8.0950739 29.0480428 -8 27 C-7.67 26.34 -7.34 25.68 -7 25 C-6.34 25 -5.68 25 -5 25 C-4.67 22.69 -4.34 20.38 -4 18 C-4.99 18 -5.98 18 -7 18 C-7.1546875 18.8971875 -7.1546875 18.8971875 -7.3125 19.8125 C-8.08876455 22.28243264 -9.07088921 23.32251235 -11 25 C-11.66 24.67 -12.32 24.34 -13 24 C-12.26394531 23.02933594 -11.52789062 22.05867188 -10.76953125 21.05859375 C-7.84269369 16.96102117 -5.75446759 12.63963695 -3.6875 8.0625 C-3.32849609 7.28326172 -2.96949219 6.50402344 -2.59960938 5.70117188 C-1.72656757 3.80376102 -0.86234564 1.90229597 0 0 Z " fill="#E93D3B" transform="translate(216,285)"/>
<path d="M0 0 C1.9375 0.5625 1.9375 0.5625 4 2 C4.625 5.1875 4.625 5.1875 5 9 C5.85296678 12.78059045 5.85296678 12.78059045 7 16 C7.66 16.33 8.32 16.66 9 17 C9.93445907 20.8636114 10.21139366 24.86393457 10.625 28.8125 C10.75616211 30.06248779 10.88732422 31.31247559 11.02246094 32.6003418 C12.1932134 44.82202562 12.27102848 57.0433974 12.25 69.3125 C12.24913391 70.2794278 12.24826782 71.24635559 12.24737549 72.24258423 C12.24092038 75.03293947 12.2247391 77.82300517 12.203125 80.61328125 C12.1987442 81.44251099 12.1943634 82.27174072 12.18984985 83.12609863 C12.12928003 88.16040976 11.71169241 93.01494412 11 98 C10.67 98 10.34 98 10 98 C10.01571045 96.45566284 10.01571045 96.45566284 10.03173828 94.88012695 C10.54571335 46.75079051 10.54571335 46.75079051 0 0 Z " fill="#DE5959" transform="translate(219,146)"/>
<path d="M0 0 C0.66 0 1.32 0 2 0 C2 0.66 2 1.32 2 2 C2.99 2 3.98 2 5 2 C5.33 5.3 5.66 8.6 6 12 C4 9 4 9 3 7 C3 18.55 3 30.1 3 42 C2.34 42 1.68 42 1 42 C1.01160156 42.79664063 1.02320313 43.59328125 1.03515625 44.4140625 C1.12478032 54.93848858 1.12478032 54.93848858 0 60 C-0.66 60 -1.32 60 -2 60 C-1.67 50.1 -1.34 40.2 -1 30 C-0.67 30 -0.34 30 0 30 C0 20.1 0 10.2 0 0 Z " fill="#DF0E10" transform="translate(232,184)"/>
<path d="M0 0 C-2.06152389 0.64894237 -4.12426258 1.2940264 -6.1875 1.9375 C-7.33605469 2.29714844 -8.48460937 2.65679687 -9.66796875 3.02734375 C-24.17959516 7.26344572 -43.11265582 7.29709534 -57 1 C-54.03013448 0.10493183 -51.74360212 -0.03315169 -48.671875 0.33984375 C-47.87265625 0.43330078 -47.0734375 0.52675781 -46.25 0.62304688 C-45.0125 0.77870117 -45.0125 0.77870117 -43.75 0.9375 C-42.90953125 1.03740234 -42.0690625 1.13730469 -41.203125 1.24023438 C-39.13463723 1.48704258 -37.06720428 1.74266284 -35 2 C-35 2.66 -35 3.32 -35 4 C-34.01 4 -33.02 4 -32 4 C-32 3.34 -32 2.68 -32 2 C-30.19402344 1.90912109 -30.19402344 1.90912109 -28.3515625 1.81640625 C-26.77602923 1.73200268 -25.20050904 1.64735459 -23.625 1.5625 C-22.8309375 1.52318359 -22.036875 1.48386719 -21.21875 1.44335938 C-16.97398779 1.31106596 -16.97398779 1.31106596 -13 0 C-11.36045464 -0.25310306 -9.71277129 -0.45536859 -8.0625 -0.625 C-7.18722656 -0.72039062 -6.31195313 -0.81578125 -5.41015625 -0.9140625 C-3 -1 -3 -1 0 0 Z " fill="#DB2727" transform="translate(163,351)"/>
<path d="M0 0 C2.33218272 0.84806644 3.44954313 1.8950996 5.0625 3.75 C2.02047381 8.00883667 -1.4214539 11.13603243 -5.9375 13.75 C-6.5975 13.75 -7.2575 13.75 -7.9375 13.75 C-7.9375 12.76 -7.9375 11.77 -7.9375 10.75 C-6.6175 10.75 -5.2975 10.75 -3.9375 10.75 C-3.9375 10.09 -3.9375 9.43 -3.9375 8.75 C-8.8875 8.75 -13.8375 8.75 -18.9375 8.75 C-10.34175532 2.30319149 -10.34175532 2.30319149 -3.9375 2.75 C-3.9375 2.09 -3.9375 1.43 -3.9375 0.75 C-1.9375 -0.25 -1.9375 -0.25 0 0 Z " fill="#F40505" transform="translate(190.9375,326.25)"/>
<path d="M0 0 C3.3 0 6.6 0 10 0 C10 0.66 10 1.32 10 2 C57.52 1.505 57.52 1.505 106 1 C106 1.66 106 2.32 106 3 C71.02 3 36.04 3 0 3 C0 2.01 0 1.02 0 0 Z " fill="#E30B0A" transform="translate(241,345)"/>
<path d="M0 0 C0.46148437 0.37511719 0.92296875 0.75023437 1.3984375 1.13671875 C12.07737726 9.51525449 22.46606733 13.37303575 36 13.25 C37.27617187 13.26160156 37.27617187 13.26160156 38.578125 13.2734375 C44.06995415 13.2565914 48.70907051 12.43676103 54 11 C55.32 11 56.64 11 58 11 C58 11.66 58 12.32 58 13 C56.01432292 13.48828125 54.02864583 13.9765625 52.04296875 14.46484375 C50.34316798 14.91010705 48.66698046 15.44433985 47 16 C36.05306604 16.80707958 24.31310038 17.14497814 14 13 C14 12.34 14 11.68 14 11 C12.906875 10.731875 11.81375 10.46375 10.6875 10.1875 C7.21307994 9.06861896 6.30547678 8.53602446 4 6 C3.01 6 2.02 6 1 6 C0.67 4.02 0.34 2.04 0 0 Z " fill="#F06464" transform="translate(114,324)"/>
<path d="M0 0 C0.33 0.66 0.66 1.32 1 2 C1.66 2.33 2.32 2.66 3 3 C1.35 3.66 -0.3 4.32 -2 5 C-2.33 7.31 -2.66 9.62 -3 12 C-2.01 12.33 -1.02 12.66 0 13 C-1.34484714 17.04161955 -3.0505162 19.38678154 -6.125 22.3125 C-6.84945312 23.00988281 -7.57390625 23.70726562 -8.3203125 24.42578125 C-9.15175781 25.20501953 -9.15175781 25.20501953 -10 26 C-10.33 25.01 -10.66 24.02 -11 23 C-10.67 22.34 -10.34 21.68 -10 21 C-9.01 21 -8.02 21 -7 21 C-7 20.34 -7 19.68 -7 19 C-6.34 19 -5.68 19 -5 19 C-5 17.68 -5 16.36 -5 15 C-5.7425 15.350625 -6.485 15.70125 -7.25 16.0625 C-10.21122875 17.0720098 -11.12062561 16.87980884 -14 16 C-13.40832031 15.5153125 -12.81664062 15.030625 -12.20703125 14.53125 C-7.04185305 10.1496959 -3.17422425 5.99752924 0 0 Z " fill="#E82828" transform="translate(200,150)"/>
<path d="M0 0 C0.33 0 0.66 0 1 0 C1 1.65 1 3.3 1 5 C1.66 5 2.32 5 3 5 C3 5.99 3 6.98 3 8 C3.66 8 4.32 8 5 8 C5 10.31 5 12.62 5 15 C5.66 15 6.32 15 7 15 C7 16.65 7 18.3 7 20 C7.66 20 8.32 20 9 20 C10.29243536 24.1196377 11.26252625 27.66831683 11 32 C11.66 32 12.32 32 13 32 C13.33 34.64 13.66 37.28 14 40 C11.86141064 37.86141064 11.28000871 36.4992034 10.23046875 33.703125 C9.90103271 32.83284668 9.57159668 31.96256836 9.23217773 31.06591797 C8.88743408 30.13666504 8.54269043 29.20741211 8.1875 28.25 C7.83437744 27.30656738 7.48125488 26.36313477 7.11743164 25.39111328 C6.40695964 23.48798804 5.69916976 21.58385924 4.99414062 19.67871094 C4.11693727 17.31508736 3.22554294 14.95756021 2.328125 12.6015625 C1.86921875 11.37179688 1.4103125 10.14203125 0.9375 8.875 C0.53402344 7.79992187 0.13054687 6.72484375 -0.28515625 5.6171875 C-1 3 -1 3 0 0 Z " fill="#E64847" transform="translate(194,76)"/>
<path d="M0 0 C1.5 1.375 1.5 1.375 3 3 C3 3.66 3 4.32 3 5 C3.99 5.33 4.98 5.66 6 6 C6 7.98 6 9.96 6 12 C5.34 11.67 4.68 11.34 4 11 C4 10.01 4 9.02 4 8 C3.34 8 2.68 8 2 8 C1.87625 9.11375 1.7525 10.2275 1.625 11.375 C1 15 1 15 -1 17 C-0.67 13.7 -0.34 10.4 0 7 C-0.50660156 8.28197266 -0.50660156 8.28197266 -1.0234375 9.58984375 C-1.69246094 11.24693359 -1.69246094 11.24693359 -2.375 12.9375 C-2.81585938 14.03964844 -3.25671875 15.14179687 -3.7109375 16.27734375 C-5 19 -5 19 -7 20 C-5.27068234 12.99102311 -3.16032658 6.49711809 0 0 Z " fill="#E94442" transform="translate(181,48)"/>
<path d="M0 0 C4.29 0.33 8.58 0.66 13 1 C13 2.65 13 4.3 13 6 C-1.85 6 -16.7 6 -32 6 C-32 5.67 -32 5.34 -32 5 C-17.81 5 -3.62 5 11 5 C11 4.34 11 3.68 11 3 C10.28972656 2.95101563 9.57945312 2.90203125 8.84765625 2.8515625 C7.92855469 2.77679688 7.00945312 2.70203125 6.0625 2.625 C5.14597656 2.55539062 4.22945313 2.48578125 3.28515625 2.4140625 C2.53105469 2.27742188 1.77695312 2.14078125 1 2 C0.505 1.01 0.505 1.01 0 0 Z " fill="#CA3A38" transform="translate(336,343)"/>
<path d="M0 0 C-0.33 1.32 -0.66 2.64 -1 4 C-1.66 4 -2.32 4 -3 4 C-3 4.66 -3 5.32 -3 6 C-3.99 6 -4.98 6 -6 6 C-6.66 8.31 -7.32 10.62 -8 13 C-10 10 -10 10 -10 8 C-11.32 8.33 -12.64 8.66 -14 9 C-10.65178571 1.90178571 -10.65178571 1.90178571 -6.4375 0 C-3 -1 -3 -1 0 0 Z " fill="#F50908" transform="translate(196,165)"/>
<path d="M0 0 C0.33 0 0.66 0 1 0 C0.98839844 0.68707031 0.97679687 1.37414062 0.96484375 2.08203125 C0.95582031 2.98308594 0.94679687 3.88414063 0.9375 4.8125 C0.92589844 5.70582031 0.91429687 6.59914063 0.90234375 7.51953125 C0.88990033 10.13413791 0.88990033 10.13413791 2 13 C1.22265625 15.69921875 1.22265625 15.69921875 0.0625 18.6875 C-0.31777344 19.68136719 -0.69804687 20.67523438 -1.08984375 21.69921875 C-1.39019531 22.45847656 -1.69054687 23.21773437 -2 24 C-2.33 24 -2.66 24 -3 24 C-2.67 21.36 -2.34 18.72 -2 16 C-2.66 16 -3.32 16 -4 16 C-4 17.32 -4 18.64 -4 20 C-4.66 20 -5.32 20 -6 20 C-5.55647603 14.78859335 -4.2114968 10.82012022 -1.9375 6.11328125 C-1.03714987 4.08374199 -0.46922753 2.16528955 0 0 Z " fill="#E64B4B" transform="translate(169,78)"/>
<path d="M0 0 C0.66 0 1.32 0 2 0 C0.68308662 4.7862013 -1.20927677 7.94271824 -4.375 11.75 C-5.14585937 12.69359375 -5.91671875 13.6371875 -6.7109375 14.609375 C-8.7851706 16.77563891 -10.24456953 17.91795881 -13 19 C-13.33 17.68 -13.66 16.36 -14 15 C-13.01 14.67 -12.02 14.34 -11 14 C-11 13.01 -11 12.02 -11 11 C-10.01 11 -9.02 11 -8 11 C-8 10.01 -8 9.02 -8 8 C-7.030625 7.7525 -6.06125 7.505 -5.0625 7.25 C-4.051875 6.8375 -3.04125 6.425 -2 6 C-1.0950739 4.0480428 -1.0950739 4.0480428 -1 2 C-0.67 1.34 -0.34 0.68 0 0 Z " fill="#EB3736" transform="translate(209,310)"/>
<path d="M0 0 C0.99 0.33 1.98 0.66 3 1 C3 2.98 3 4.96 3 7 C2.01 7 1.02 7 0 7 C0 8.65 0 10.3 0 12 C-0.66 12 -1.32 12 -2 12 C-2 13.32 -2 14.64 -2 16 C-2.99 16.33 -3.98 16.66 -5 17 C-5.6875 15.4375 -5.6875 15.4375 -6 13 C-5.07175817 10.6372026 -4.06902939 8.30252483 -3 6 C-2.62691369 4.67723944 -2.26953585 3.34767923 -2 2 C-1.34 2 -0.68 2 0 2 C0 1.34 0 0.68 0 0 Z " fill="#F60402" transform="translate(219,283)"/>
<path d="M0 0 C-0.845625 0.53625 -1.69125 1.0725 -2.5625 1.625 C-7.42885604 4.87306311 -11.7780322 8.70719126 -15.875 12.875 C-16.57625 13.57625 -17.2775 14.2775 -18 15 C-18.33 15 -18.66 15 -19 15 C-18.67 12.69 -18.34 10.38 -18 8 C-16.35 8 -14.7 8 -13 8 C-12.67 6.35 -12.34 4.7 -12 3 C-10.35 3 -8.7 3 -7 3 C-7 2.01 -7 1.02 -7 0 C-3.86650268 -1.04449911 -3.01031744 -0.93423645 0 0 Z " fill="#EA2525" transform="translate(144,210)"/>
<path d="M0 0 C0.82638376 2.89234315 1 4.88742431 1 8 C-1.375 9.75 -1.375 9.75 -5 11 C-8.53303355 10.0694242 -11.73281547 8.62067849 -15 7 C-14.67 6.34 -14.34 5.68 -14 5 C-13.319375 5.2475 -12.63875 5.495 -11.9375 5.75 C-7.57125532 6.12159529 -5.6319037 4.39842697 -2 2 C-1.34 1.34 -0.68 0.68 0 0 Z " fill="#EF3C3F" transform="translate(161,160)"/>
<path d="M0 0 C-0.0625 1.75 -0.0625 1.75 -1 4 C-8.67144897 9.32304622 -16.37088885 10.31828737 -25.5 10.125 C-26.73363281 10.11146484 -26.73363281 10.11146484 -27.9921875 10.09765625 C-29.99492083 10.07436865 -31.99750154 10.03850959 -34 10 C-34 9.67 -34 9.34 -34 9 C-32.80503906 8.89042969 -31.61007813 8.78085937 -30.37890625 8.66796875 C-20.74375197 7.73047239 -7.61745824 0 0 0 Z " fill="#E75553" transform="translate(274,335)"/>
<path d="M0 0 C0.33 0 0.66 0 1 0 C1.07476562 0.59683594 1.14953125 1.19367188 1.2265625 1.80859375 C2.61419405 10.96424117 5.7800693 19.36289028 9 28 C8.01 28 7.02 28 6 28 C6 26.68 6 25.36 6 24 C5.34 24 4.68 24 4 24 C1.57832547 21.83394667 0.15800844 20.07565439 -0.32226562 16.80615234 C-0.39340723 14.25572566 -0.34885877 11.7369156 -0.25 9.1875 C-0.23195313 8.30384766 -0.21390625 7.42019531 -0.1953125 6.50976562 C-0.14838513 4.33937457 -0.07664731 2.16954481 0 0 Z " fill="#EA3D3F" transform="translate(99,289)"/>
<path d="M0 0 C1.6415049 3.2830098 0.51888624 6.42545033 0 10 C0.66 10.33 1.32 10.66 2 11 C1.01 11.99 0.02 12.98 -1 14 C-1.33 13.01 -1.66 12.02 -2 11 C-2 14.3 -2 17.6 -2 21 C-2.66 21 -3.32 21 -4 21 C-4 25.29 -4 29.58 -4 34 C-4.33 34 -4.66 34 -5 34 C-5.31364373 22.37775719 -5.4060775 10.5664242 0 0 Z " fill="#E73D3D" transform="translate(75,263)"/>
<path d="M0 0 C0.66 0 1.32 0 2 0 C2 0.66 2 1.32 2 2 C2.99 2 3.98 2 5 2 C5.33 5.3 5.66 8.6 6 12 C4 9 4 9 3 7 C3.02320313 8.05960938 3.04640625 9.11921875 3.0703125 10.2109375 C3.08906944 11.5989513 3.10726972 12.9869727 3.125 14.375 C3.14175781 15.07367188 3.15851563 15.77234375 3.17578125 16.4921875 C3.19344267 18.32897486 3.10303261 20.16601963 3 22 C2.34 22.66 1.68 23.32 1 24 C0.67 16.08 0.34 8.16 0 0 Z " fill="#E55656" transform="translate(232,184)"/>
<path d="M0 0 C0.33 0 0.66 0 1 0 C0.85805236 2.06277107 0.71127784 4.12521031 0.5625 6.1875 C0.48128906 7.33605469 0.40007812 8.48460937 0.31640625 9.66796875 C0.04596188 12.51598171 -0.37521747 15.21210482 -1 18 C-1.99 18.33 -2.98 18.66 -4 19 C-4.02725341 17.2709226 -4.04650987 15.54171824 -4.0625 13.8125 C-4.07410156 12.84957031 -4.08570313 11.88664062 -4.09765625 10.89453125 C-4.00486622 8.14423487 -3.62111685 5.67520409 -3 3 C-2.34 3 -1.68 3 -1 3 C-0.67 2.01 -0.34 1.02 0 0 Z " fill="#EC1D1E" transform="translate(230,245)"/>
<path d="M0 0 C0.33 0.66 0.66 1.32 1 2 C1.66 2 2.32 2 3 2 C4.84674887 4.23148822 6.39205835 6.58808753 8 9 C7.01 9.495 7.01 9.495 6 10 C6.33 10.66 6.66 11.32 7 12 C7.039992 13.99960012 7.04346799 16.00047242 7 18 C7.66 18 8.32 18 9 18 C9.66 21.3 10.32 24.6 11 28 C8.51427839 25.51427839 7.84523609 23.29541466 6.625 20 C4.7434205 14.9638436 2.78208092 9.97949689 0.69921875 5.0234375 C0 3 0 3 0 0 Z " fill="#E8393A" transform="translate(263,262)"/>
<path d="M0 0 C0.66 0 1.32 0 2 0 C2 1.32 2 2.64 2 4 C2.99 4 3.98 4 5 4 C4.57405412 5.44096586 4.13373367 6.87768712 3.6875 8.3125 C3.44386719 9.11300781 3.20023438 9.91351563 2.94921875 10.73828125 C1.95324485 13.11140424 0.96875929 14.36904391 -1 16 C-1.33 16 -1.66 16 -2 16 C-1.85890014 13.89551062 -1.71195825 11.7914123 -1.5625 9.6875 C-1.48128906 8.51574219 -1.40007812 7.34398438 -1.31640625 6.13671875 C-1 3 -1 3 0 0 Z " fill="#E72E2D" transform="translate(171,73)"/>
<path d="M0 0 C2.99332739 0.9977758 3.94766315 1.7522025 6 4 C2.95797381 8.25883667 -0.4839539 11.38603243 -5 14 C-5.66 14 -6.32 14 -7 14 C-7 13.01 -7 12.02 -7 11 C-5.68 11 -4.36 11 -3 11 C-3 10.34 -3 9.68 -3 9 C-3.99 8.67 -4.98 8.34 -6 8 C-4.1875 6.9375 -4.1875 6.9375 -2 6 C-1.01 6.33 -0.02 6.66 1 7 C0.67 4.69 0.34 2.38 0 0 Z " fill="#F33436" transform="translate(190,326)"/>
<path d="M0 0 C0.66 0.33 1.32 0.66 2 1 C1.34 3.31 0.68 5.62 0 8 C-0.66 8 -1.32 8 -2 8 C-2.66 9.98 -3.32 11.96 -4 14 C-5.32 13.67 -6.64 13.34 -8 13 C-6.375 6.25 -6.375 6.25 -3 4 C-2.67 3.01 -2.34 2.02 -2 1 C-1.34 0.67 -0.68 0.34 0 0 Z " fill="#F70303" transform="translate(211,302)"/>
<path d="M0 0 C0.66 0 1.32 0 2 0 C1.67 1.32 1.34 2.64 1 4 C0.34 4 -0.32 4 -1 4 C-1.061875 4.78375 -1.12375 5.5675 -1.1875 6.375 C-1.455625 7.24125 -1.72375 8.1075 -2 9 C-3.65204456 9.70211894 -5.31923769 10.36971413 -7 11 C-7.165 11.66 -7.33 12.32 -7.5 13 C-7.665 13.66 -7.83 14.32 -8 15 C-10.5625 16.25 -10.5625 16.25 -13 17 C-11.43988817 13.5222507 -9.36827674 10.72775973 -7 7.75 C-6.29875 6.85796875 -5.5975 5.9659375 -4.875 5.046875 C-4.25625 4.37140625 -3.6375 3.6959375 -3 3 C-2.34 3 -1.68 3 -1 3 C-0.67 2.01 -0.34 1.02 0 0 Z " fill="#EA5154" transform="translate(98,229)"/>
<path d="M0 0 C1.9375 0.5625 1.9375 0.5625 4 2 C4.625 5.1875 4.625 5.1875 5 9 C5.85296678 12.78059045 5.85296678 12.78059045 7 16 C7.66 16.33 8.32 16.66 9 17 C9 19.64 9 22.28 9 25 C8.34 25 7.68 25 7 25 C6.85900879 24.45585449 6.71801758 23.91170898 6.57275391 23.35107422 C5.9256261 20.85849266 5.27533833 18.36674575 4.625 15.875 C4.40328125 15.0190625 4.1815625 14.163125 3.953125 13.28125 C2.7799084 8.79542181 1.53622605 4.37896212 0 0 Z " fill="#EA5252" transform="translate(219,146)"/>
<path d="M0 0 C1.15941038 3.47823115 0.70820884 5.45895578 0 9 C0.66 9 1.32 9 2 9 C1.25 15.625 1.25 15.625 -1 19 C-0.505 14.545 -0.505 14.545 0 10 C-0.66 10 -1.32 10 -2 10 C-1.938125 10.680625 -1.87625 11.36125 -1.8125 12.0625 C-2.05868263 15.91936125 -3.35802162 18.51079594 -5 22 C-5.66 21.67 -6.32 21.34 -7 21 C-4.96192707 13.8821847 -2.59655258 6.93292719 0 0 Z " fill="#E8595A" transform="translate(151,126)"/>
<path d="M0 0 C0.99 0.495 0.99 0.495 2 1 C2 4.63 2 8.26 2 12 C2.99 12.33 3.98 12.66 5 13 C6.25 19.625 6.25 19.625 4 23 C1.24664582 16.89473639 -0.14415583 11.96493416 -0.0625 5.1875 C-0.05347656 4.21167969 -0.04445313 3.23585938 -0.03515625 2.23046875 C-0.02355469 1.49441406 -0.01195313 0.75835937 0 0 Z " fill="#E53C3B" transform="translate(71,297)"/>
<path d="M0 0 C0.33 0 0.66 0 1 0 C1.268125 0.845625 1.53625 1.69125 1.8125 2.5625 C2.94078659 6.01352806 2.94078659 6.01352806 4.5 9.25 C6.44731107 13.64874836 7.19310195 18.28201961 8 23 C8.66 23 9.32 23 10 23 C10 25.31 10 27.62 10 30 C5.22813208 20.7074151 1.36924856 11.18361224 -1 1 C-0.67 0.67 -0.34 0.34 0 0 Z " fill="#E75759" transform="translate(239,195)"/>
<path d="M0 0 C0.66 0 1.32 0 2 0 C4.15758273 5.24955168 4.24042211 9.80810284 4.125 15.375 C4.11597656 16.20644531 4.10695313 17.03789062 4.09765625 17.89453125 C4.0742622 19.92981337 4.03839725 21.96494564 4 24 C3.34 24.33 2.68 24.66 2 25 C1.90912109 23.17275391 1.90912109 23.17275391 1.81640625 21.30859375 C1.73193597 19.68488723 1.64729128 18.06118978 1.5625 16.4375 C1.50352539 15.23770508 1.50352539 15.23770508 1.44335938 14.01367188 C1.19251844 9.28628494 0.74678186 4.67523099 0 0 Z " fill="#E03230" transform="translate(277,301)"/>
<path d="M0 0 C0 3 0 3 -2.5 5.5625 C-3.325 6.366875 -4.15 7.17125 -5 8 C-5 8.66 -5 9.32 -5 10 C-8 12 -8 12 -11 12 C-11 12.66 -11 13.32 -11 14 C-12.65 14.33 -14.3 14.66 -16 15 C-16 14.34 -16 13.68 -16 13 C-15.34 13 -14.68 13 -14 13 C-14 12.34 -14 11.68 -14 11 C-11.8828125 9.0546875 -11.8828125 9.0546875 -9.125 6.875 C-8.22007813 6.15054688 -7.31515625 5.42609375 -6.3828125 4.6796875 C-4 3 -4 3 -2 3 C-2 2.34 -2 1.68 -2 1 C-1.34 0.67 -0.68 0.34 0 0 Z " fill="#E63B3D" transform="translate(116,214)"/>
<path d="M0 0 C0.66 0 1.32 0 2 0 C2 3.63 2 7.26 2 11 C1.34 11 0.68 11 0 11 C-0.66 13.31 -1.32 15.62 -2 18 C-2.66 17.34 -3.32 16.68 -4 16 C-3.58818086 10.50907809 -1.64317728 5.22923084 0 0 Z " fill="#F40504" transform="translate(225,265)"/>
<path d="M0 0 C0.66 0 1.32 0 2 0 C1.88487847 1.72985242 1.75744323 3.45888751 1.625 5.1875 C1.55539063 6.15042969 1.48578125 7.11335938 1.4140625 8.10546875 C0.99784147 11.01508938 0.20125904 13.32890774 -1 16 C-1.66 15.34 -2.32 14.68 -3 14 C-2.67 13.01 -2.34 12.02 -2 11 C-2.99 11 -3.98 11 -5 11 C-4.34 8.69 -3.68 6.38 -3 4 C-2.01 4 -1.02 4 0 4 C0 2.68 0 1.36 0 0 Z " fill="#E84241" transform="translate(165,94)"/>
<path d="M0 0 C2.050863 3.07629451 3.24138277 5.92826431 4.5625 9.375 C4.99691406 10.49648437 5.43132812 11.61796875 5.87890625 12.7734375 C6.8372933 15.53172219 7.52108842 18.12653052 8 21 C7.34 21.33 6.68 21.66 6 22 C5.67 20.35 5.34 18.7 5 17 C4.34 17 3.68 17 3 17 C3 15.02 3 13.04 3 11 C2.34 11 1.68 11 1 11 C0.67 7.37 0.34 3.74 0 0 Z " fill="#E54545" transform="translate(240,122)"/>
<path d="M0 0 C0 0.66 0 1.32 0 2 C-1.98567708 2.48828125 -3.97135417 2.9765625 -5.95703125 3.46484375 C-7.65683202 3.91010705 -9.33301954 4.44433985 -11 5 C-12.70016844 5.08178114 -14.40336297 5.10749501 -16.10546875 5.09765625 C-17.08837891 5.09443359 -18.07128906 5.09121094 -19.08398438 5.08789062 C-20.10814453 5.07951172 -21.13230469 5.07113281 -22.1875 5.0625 C-23.22326172 5.05798828 -24.25902344 5.05347656 -25.32617188 5.04882812 C-27.88417266 5.0370401 -30.44205733 5.02058515 -33 5 C-33 4.67 -33 4.34 -33 4 C-32.16190796 3.97812622 -32.16190796 3.97812622 -31.30688477 3.95581055 C-28.72479948 3.88039202 -26.14387816 3.78405119 -23.5625 3.6875 C-22.68400391 3.66494141 -21.80550781 3.64238281 -20.90039062 3.61914062 C-15.5170089 3.40062698 -11.01265043 2.60422184 -5.98803711 0.63208008 C-4 0 -4 0 0 0 Z " fill="#DC322F" transform="translate(172,335)"/>
<path d="M0 0 C2.16536859 2.16536859 2.5629301 3.31673665 3.4375 6.1875 C4.37482014 9.1773109 5.4083462 11.98216185 6.75 14.8125 C8 18 8 18 7.6875 20.4375 C7.460625 20.953125 7.23375 21.46875 7 22 C6.71125 21.38125 6.4225 20.7625 6.125 20.125 C5.06279958 17.86674235 5.06279958 17.86674235 3 16 C0.62382055 10.64814628 -0.37164821 5.82248856 0 0 Z " fill="#E44346" transform="translate(272,207)"/>
<path d="M0 0 C2.875 0.3125 2.875 0.3125 6 1 C8.18994248 4.28491373 8.35277339 5.83095639 8.625 9.6875 C8.69976562 10.68136719 8.77453125 11.67523438 8.8515625 12.69921875 C8.90054688 13.45847656 8.94953125 14.21773437 9 15 C8.01 15 7.02 15 6 15 C5.34 10.71 4.68 6.42 4 2 C2.68 2 1.36 2 0 2 C0 1.34 0 0.68 0 0 Z " fill="#EF0708" transform="translate(196,135)"/>
<path d="M0 0 C1.9009762 2.8514643 2.96265899 5.29710476 4.125 8.5 C4.47820312 9.4590625 4.83140625 10.418125 5.1953125 11.40625 C6 14 6 14 6 17 C5.01 17.33 4.02 17.66 3 18 C3 16.02 3 14.04 3 12 C2.34 12 1.68 12 1 12 C1 10.02 1 8.04 1 6 C0.34 6 -0.32 6 -1 6 C-0.67 4.02 -0.34 2.04 0 0 Z " fill="#E73534" transform="translate(226,85)"/>
<path d="M0 0 C7.26 0.66 14.52 1.32 22 2 C22 2.66 22 3.32 22 4 C13.99054432 4.30372936 7.30934715 4.50848663 0 1 C0 0.67 0 0.34 0 0 Z " fill="#DC393A" transform="translate(106,351)"/>
<path d="M0 0 C0.66 0 1.32 0 2 0 C1.27991594 4.60853797 -0.31295939 8.67237409 -2 13 C-2.33 13 -2.66 13 -3 13 C-3.12375 12.195625 -3.2475 11.39125 -3.375 10.5625 C-3.58125 9.716875 -3.7875 8.87125 -4 8 C-4.66 7.67 -5.32 7.34 -6 7 C-6 7.66 -6 8.32 -6 9 C-6.66 9 -7.32 9 -8 9 C-7.67 7.35 -7.34 5.7 -7 4 C-6.01 3.67 -5.02 3.34 -4 3 C-3.34 3.66 -2.68 4.32 -2 5 C-1.34 3.35 -0.68 1.7 0 0 Z " fill="#E94546" transform="translate(225,276)"/>
<path d="M0 0 C1.32 0 2.64 0 4 0 C3.47679633 3.76706644 2.72611199 6.27388801 0 9 C-1.32 9 -2.64 9 -4 9 C-4 8.01 -4 7.02 -4 6 C-3.01 6 -2.02 6 -1 6 C-1.020625 5.195625 -1.04125 4.39125 -1.0625 3.5625 C-1 1 -1 1 0 0 Z " fill="#E92224" transform="translate(173,147)"/>
<path d="M0 0 C1.65 0 3.3 0 5 0 C5.67595315 1.41225926 6.34040059 2.83002905 7 4.25 C7.37125 5.03890625 7.7425 5.8278125 8.125 6.640625 C9 9 9 9 9 13 C8.34 13 7.68 13 7 13 C7 11.35 7 9.7 7 8 C6.34 8 5.68 8 5 8 C4.67 6.68 4.34 5.36 4 4 C2.35 4 0.7 4 -1 4 C-0.67 2.68 -0.34 1.36 0 0 Z " fill="#E04E4F" transform="translate(194,13)"/>
<path d="M0 0 C1.4540625 0.0309375 1.4540625 0.0309375 2.9375 0.0625 C-0.22798033 3.95151869 -3.46615256 7.56890535 -7.0625 11.0625 C-7.0625 9.0825 -7.0625 7.1025 -7.0625 5.0625 C-5.7425 5.0625 -4.4225 5.0625 -3.0625 5.0625 C-3.3409375 4.1034375 -3.3409375 4.1034375 -3.625 3.125 C-3.769375 2.444375 -3.91375 1.76375 -4.0625 1.0625 C-3.0625 0.0625 -3.0625 0.0625 0 0 Z " fill="#EC4141" transform="translate(120.0625,227.9375)"/>
<path d="M0 0 C-1.41468311 0.96125903 -2.8318364 1.91888325 -4.25 2.875 C-5.03890625 3.40867187 -5.8278125 3.94234375 -6.640625 4.4921875 C-12.30958904 8.11506849 -12.30958904 8.11506849 -15.25 7.625 C-15.8275 7.41875 -16.405 7.2125 -17 7 C-15.68 6.67 -14.36 6.34 -13 6 C-13 5.34 -13 4.68 -13 4 C-10 2 -10 2 -6 2 C-6 1.34 -6 0.68 -6 0 C-2.25 -1.125 -2.25 -1.125 0 0 Z " fill="#E23E3F" transform="translate(183,341)"/>
<path d="M0 0 C0.46148437 0.37511719 0.92296875 0.75023437 1.3984375 1.13671875 C6.60932548 5.2251032 11.99817837 8.22046785 18 11 C13.54447901 12.44926837 11.13143187 11.1032744 7 9 C5.98198643 8.01834406 4.9753197 7.02408568 4 6 C3.01 6 2.02 6 1 6 C0.67 4.02 0.34 2.04 0 0 Z " fill="#E35350" transform="translate(114,324)"/>
<path d="M0 0 C0 0.99 0 1.98 0 3 C1.32 3 2.64 3 4 3 C4.33 4.65 4.66 6.3 5 8 C4.2884375 7.319375 4.2884375 7.319375 3.5625 6.625 C-0.05684343 4.3298066 -3.8229439 3.75865335 -8 3 C-8 2.34 -8 1.68 -8 1 C-5.10765685 0.17361624 -3.11257569 0 0 0 Z " fill="#EB3534" transform="translate(196,134)"/>
<path d="M0 0 C2.55028983 1.27514492 2.93081711 2.40341297 4 5 C4 5.99 4 6.98 4 8 C4.66 8 5.32 8 6 8 C7.29243536 12.1196377 8.26252625 15.66831683 8 20 C5.08380209 16.59634379 3.7761973 13.08587691 2.3125 8.875 C1.87550781 7.63492188 1.43851563 6.39484375 0.98828125 5.1171875 C0 2 0 2 0 0 Z " fill="#E85052" transform="translate(211,125)"/>
<path d="M0 0 C0.66666667 1.33333333 1.33333333 2.66666667 2 4 C2.44859375 4.8765625 2.8971875 5.753125 3.359375 6.65625 C3.81828125 7.5946875 4.2771875 8.533125 4.75 9.5 C5.21921875 10.4384375 5.6884375 11.376875 6.171875 12.34375 C7 15 7 15 6.140625 17.34375 C5.76421875 17.8903125 5.3878125 18.436875 5 19 C3.72746564 15.35206816 2.67170806 11.8063457 2 8 C1.34 8 0.68 8 0 8 C0 5.36 0 2.72 0 0 Z " fill="#E55147" transform="translate(300,281)"/>
<path d="M0 0 C0.66 0.99 1.32 1.98 2 3 C1.25 5.25 1.25 5.25 0 8 C-0.68679942 10.32748694 -1.35761043 12.65986656 -2 15 C-2.66 14.67 -3.32 14.34 -4 14 C-3.46148032 8.72250715 -2.22656164 4.74354436 0 0 Z " fill="#E83E3C" transform="translate(186,34)"/>
<path d="M0 0 C1.65 0 3.3 0 5 0 C5 0.33 5 0.66 5 1 C7.97 1.33 10.94 1.66 14 2 C14 2.33 14 2.66 14 3 C5.42 3 -3.16 3 -12 3 C-12 2.67 -12 2.34 -12 2 C-8.04 2 -4.08 2 0 2 C0 1.34 0 0.68 0 0 Z " fill="#F38889" transform="translate(131,353)"/>
<path d="M0 0 C0.66 0 1.32 0 2 0 C1.39363767 5.76044212 -0.75658279 10.72014369 -3 16 C-3.66 15.67 -4.32 15.34 -5 15 C-4.49675344 12.3831179 -3.72561298 10.46265875 -2.5 8.0625 C-1.13847378 5.2827173 -0.44682292 3.03839588 0 0 Z " fill="#F00707" transform="translate(149,136)"/>
<path d="M0 0 C0.33 0 0.66 0 1 0 C1.6212008 7.70288993 -0.1258097 12.3723673 -4 19 C-5.3662889 16.26742221 -4.61455804 15.18154693 -3.6875 12.3125 C-3.40648437 11.42433594 -3.12546875 10.53617187 -2.8359375 9.62109375 C-2.56007812 8.75613281 -2.28421875 7.89117187 -2 7 C-1.59796943 5.6267992 -1.20111728 4.25205688 -0.8125 2.875 C-0.544375 1.92625 -0.27625 0.9775 0 0 Z " fill="#E65C5E" transform="translate(224,261)"/>
<path d="M0 0 C0.33 0 0.66 0 1 0 C1 1.65 1 3.3 1 5 C1.66 5 2.32 5 3 5 C3 5.99 3 6.98 3 8 C3.66 8 4.32 8 5 8 C5 10.31 5 12.62 5 15 C4.34 15 3.68 15 3 15 C2.30151736 13.06643218 1.61655186 11.12797702 0.9375 9.1875 C0.55464844 8.10855469 0.17179688 7.02960938 -0.22265625 5.91796875 C-1 3 -1 3 0 0 Z " fill="#E33C3A" transform="translate(194,76)"/>
<path d="M0 0 C0.66 0 1.32 0 2 0 C2 0.99 2 1.98 2 3 C2.66 3 3.32 3 4 3 C4 4.98 4 6.96 4 9 C4.66 9 5.32 9 6 9 C6 11.31 6 13.62 6 16 C4.2133211 13.31998165 3.0677863 10.96871256 1.875 8 C1.52179688 7.13375 1.16859375 6.2675 0.8046875 5.375 C0 3 0 3 0 0 Z " fill="#E64F4D" transform="translate(187,61)"/>
<path d="M0 0 C2.66376524 3.16896209 3.95944952 6.20519369 5.25 10.125 C5.78367188 11.70667969 5.78367188 11.70667969 6.328125 13.3203125 C7 16 7 16 6 18 C5.67 16.35 5.34 14.7 5 13 C4.01 12.67 3.02 12.34 2 12 C0.65743047 7.68964518 0 4.52218352 0 0 Z " fill="#E03E42" transform="translate(203,26)"/>
<path d="M0 0 C2.57146057 2.57146057 2.80117997 4.6050417 3.625 8.125 C3.88539063 9.22070312 4.14578125 10.31640625 4.4140625 11.4453125 C4.70410156 12.70988281 4.70410156 12.70988281 5 14 C1.125 12.125 1.125 12.125 0 11 C-0.07226502 9.14712498 -0.0838122 7.29166122 -0.0625 5.4375 C-0.05347656 4.42558594 -0.04445313 3.41367187 -0.03515625 2.37109375 C-0.02355469 1.58863281 -0.01195312 0.80617188 0 0 Z " fill="#EB4041" transform="translate(291,257)"/>
<path d="M0 0 C0.33 0.99 0.66 1.98 1 3 C0.505 3.4125 0.01 3.825 -0.5 4.25 C-2.43386092 6.12202338 -2.43386092 6.12202338 -2 10 C-3.32 9.67 -4.64 9.34 -6 9 C-5.42415568 6.61435923 -4.77772405 4.33317216 -4 2 C-1.9375 0.8125 -1.9375 0.8125 0 0 Z " fill="#F60404" transform="translate(202,153)"/>
<path d="M0 0 C2.45739008 2.45739008 2.94873632 4.44837501 4 7.75 C4.33 8.77609375 4.66 9.8021875 5 10.859375 C5.495 12.41398437 5.495 12.41398437 6 14 C6.66389978 16.00092017 7.32974375 18.00120011 8 20 C3.90963755 17.95481878 2.5442087 12.09976535 1 8 C0.40470976 5.27016905 0.15846439 2.79953762 0 0 Z " fill="#E54B4D" transform="translate(218,65)"/>
<path d="M0 0 C0.33 0 0.66 0 1 0 C0.4714941 6.07781789 -1.23120855 11.54600325 -4 17 C-4.66 17.33 -5.32 17.66 -6 18 C-4.41039668 11.76559832 -2.72399099 5.83712355 0 0 Z " fill="#E86B6D" transform="translate(180,50)"/>
<path d="M0 0 C0.66 0.33 1.32 0.66 2 1 C1.67 2.65 1.34 4.3 1 6 C-2.3 6 -5.6 6 -9 6 C-6.02581978 3.76936483 -3.2753033 1.72384384 0 0 Z " fill="#EB393A" transform="translate(181,329)"/>
<path d="M0 0 C2.20187672 2.20187672 3.28178929 4.22885682 4.6875 7 C5.14511719 7.886875 5.60273438 8.77375 6.07421875 9.6875 C6.37972656 10.450625 6.68523437 11.21375 7 12 C6.67 12.66 6.34 13.32 6 14 C5.01 13.67 4.02 13.34 3 13 C3 12.01 3 11.02 3 10 C2.34 10 1.68 10 1 10 C0.67 6.7 0.34 3.4 0 0 Z " fill="#E83A3C" transform="translate(312,310)"/>
<path d="M0 0 C0.66 0.33 1.32 0.66 2 1 C0.125 5.75 0.125 5.75 -1 8 C-1.66 7.67 -2.32 7.34 -3 7 C-5.00800456 7.28112064 -7.01014051 7.61067967 -9 8 C-6.17493137 5.0702992 -3.21203935 2.49825283 0 0 Z " fill="#E83234" transform="translate(126,206)"/>
<path d="M0 0 C1.32979529 3.98938586 0.18256074 5.99243306 -1 10 C-1.42848801 12.66407764 -1.71734371 15.31476526 -2 18 C-2.33 18 -2.66 18 -3 18 C-3.08150744 15.93816367 -3.1394194 13.87538651 -3.1875 11.8125 C-3.22230469 10.66394531 -3.25710937 9.51539063 -3.29296875 8.33203125 C-2.97622579 4.72960801 -2.08533398 2.90633161 0 0 Z " fill="#E93E3F" transform="translate(102,260)"/>
<path d="M0 0 C1.32 0.33 2.64 0.66 4 1 C2.2126038 2.33905267 0.41995047 3.67109066 -1.375 5 C-2.37273437 5.7425 -3.37046875 6.485 -4.3984375 7.25 C-7 9 -7 9 -9 9 C-9 8.01 -9 7.02 -9 6 C-7.68 6 -6.36 6 -5 6 C-5 5.34 -5 4.68 -5 4 C-4.34 4 -3.68 4 -3 4 C-3 3.34 -3 2.68 -3 2 C-2.01 2 -1.02 2 0 2 C0 1.34 0 0.68 0 0 Z " fill="#E44648" transform="translate(153,199)"/>
<path d="M0 0 C0.33 1.32 0.66 2.64 1 4 C0.01 4 -0.98 4 -2 4 C-2 4.99 -2 5.98 -2 7 C-1.01 7 -0.02 7 1 7 C1 7.66 1 8.32 1 9 C0.34 9 -0.32 9 -1 9 C-1.33 9.66 -1.66 10.32 -2 11 C-2 10.01 -2 9.02 -2 8 C-3.65 8.33 -5.3 8.66 -7 9 C-6.02180976 7.68677212 -5.0424189 6.37443848 -4.0625 5.0625 C-3.51722656 4.33160156 -2.97195312 3.60070312 -2.41015625 2.84765625 C-1 1 -1 1 0 0 Z " fill="#E75E5C" transform="translate(171,149)"/>
<path d="M0 0 C1.32 0 2.64 0 4 0 C4.33 1.65 4.66 3.3 5 5 C6.32 5 7.64 5 9 5 C9 6.65 9 8.3 9 10 C5.06451569 6.93906776 2.31883213 4.50884026 0 0 Z " fill="#E64E4D" transform="translate(82,332)"/>
<path d="M0 0 C0.598125 0.20625 1.19625 0.4125 1.8125 0.625 C0.42372646 3.98120271 -1.10427965 5.69798728 -4.1875 7.625 C-4.8475 7.625 -5.5075 7.625 -6.1875 7.625 C-6.1875 6.635 -6.1875 5.645 -6.1875 4.625 C-4.8675 4.625 -3.5475 4.625 -2.1875 4.625 C-2.1875 3.965 -2.1875 3.305 -2.1875 2.625 C-3.1775 2.295 -4.1675 1.965 -5.1875 1.625 C-2.1875 -0.375 -2.1875 -0.375 0 0 Z " fill="#E92A26" transform="translate(189.1875,332.375)"/>
<path d="M0 0 C0.99 0.33 1.98 0.66 3 1 C3 2.98 3 4.96 3 7 C1.35 6.67 -0.3 6.34 -2 6 C-2 4.68 -2 3.36 -2 2 C-1.34 2 -0.68 2 0 2 C0 1.34 0 0.68 0 0 Z " fill="#EB0807" transform="translate(219,283)"/>
<path d="M0 0 C0.66 0 1.32 0 2 0 C1.67 3.63 1.34 7.26 1 11 C0.01 10.67 -0.98 10.34 -2 10 C-1.85950482 8.52031676 -1.71245174 7.04125484 -1.5625 5.5625 C-1.48128906 4.73878906 -1.40007812 3.91507813 -1.31640625 3.06640625 C-1 1 -1 1 0 0 Z " fill="#EE0706" transform="translate(143,153)"/>
<path d="M0 0 C0.66 0.33 1.32 0.66 2 1 C1.38245741 2.31602523 0.75571258 3.62773556 0.125 4.9375 C-0.22304687 5.66839844 -0.57109375 6.39929688 -0.9296875 7.15234375 C-2 9 -2 9 -4 10 C-3.51171875 3.9453125 -3.51171875 3.9453125 -3 2 C-2.01 1.34 -1.02 0.68 0 0 Z " fill="#EC5353" transform="translate(215,301)"/>
<path d="M0 0 C2.90408342 3.87211123 3.85079464 6.40317854 5 11 C3.66666667 11 2.33333333 11 1 11 C0.67 7.37 0.34 3.74 0 0 Z " fill="#E73B39" transform="translate(282,235)"/>
<path d="M0 0 C0.66 0.99 1.32 1.98 2 3 C1.01 3 0.02 3 -1 3 C-1 3.66 -1 4.32 -1 5 C-5.455 6.485 -5.455 6.485 -10 8 C-6.88983545 4.71211176 -3.98381075 2.16264012 0 0 Z " fill="#E53D3D" transform="translate(138,198)"/>
<path d="M0 0 C1.90318884 2.85478326 2.4619099 4.41941308 3.125 7.6875 C3.29257813 8.49574219 3.46015625 9.30398437 3.6328125 10.13671875 C3.75398437 10.75160156 3.87515625 11.36648437 4 12 C2.35 11.01 0.7 10.02 -1 9 C-0.67 6.03 -0.34 3.06 0 0 Z " fill="#E94041" transform="translate(252,154)"/>
<path d="M0 0 C0.33 0 0.66 0 1 0 C1 2.64 1 5.28 1 8 C-0.32 8.33 -1.64 8.66 -3 9 C-2.25 2.25 -2.25 2.25 0 0 Z " fill="#E71819" transform="translate(176,68)"/>
<path d="M0 0 C0.33 0 0.66 0 1 0 C1 1.98 1 3.96 1 6 C1.66 6 2.32 6 3 6 C3.66 9.3 4.32 12.6 5 16 C2.77976074 13.77976074 2.00011037 12.01470899 0.8125 9.125 C0.44769531 8.26132812 0.08289063 7.39765625 -0.29296875 6.5078125 C-1.04664008 3.83456944 -0.9388856 2.57147011 0 0 Z " fill="#E95657" transform="translate(269,274)"/>
<path d="M0 0 C-0.9075 0.598125 -1.815 1.19625 -2.75 1.8125 C-5.22901481 3.48106766 -7.63317911 5.17936855 -10 7 C-10.33 5.68 -10.66 4.36 -11 3 C-9.68 3 -8.36 3 -7 3 C-7 2.01 -7 1.02 -7 0 C-3.86650268 -1.04449911 -3.01031744 -0.93423645 0 0 Z " fill="#E8373A" transform="translate(144,210)"/>
<path d="M0 0 C0.33 0 0.66 0 1 0 C1.33 1.98 1.66 3.96 2 6 C2.66 6 3.32 6 4 6 C3.67 9.96 3.34 13.92 3 18 C2.34 17.67 1.68 17.34 1 17 C1.33 14.03 1.66 11.06 2 8 C1.34 8 0.68 8 0 8 C0 5.36 0 2.72 0 0 Z " fill="#E53130" transform="translate(225,257)"/>
<path d="M0 0 C1.45947705 0.06006078 2.91779272 0.1488689 4.375 0.25 C5.59316406 0.31960937 5.59316406 0.31960937 6.8359375 0.390625 C7.55007812 0.59171875 8.26421875 0.7928125 9 1 C9.66 2.32 10.32 3.64 11 5 C5.06 3.515 5.06 3.515 -1 2 C-0.67 1.34 -0.34 0.68 0 0 Z " fill="#E2706A" transform="translate(192,132)"/>
<path d="M0 0 C1.04211409 3.12634226 0.99926113 4.04848841 0.25 7.125 C0.01023438 8.18074219 0.01023438 8.18074219 -0.234375 9.2578125 C-0.48703125 9.83273438 -0.7396875 10.40765625 -1 11 C-1.99 11.33 -2.98 11.66 -4 12 C-3.71640113 10.5608866 -3.42278601 9.12374482 -3.125 7.6875 C-2.96257812 6.88699219 -2.80015625 6.08648437 -2.6328125 5.26171875 C-2 3 -2 3 0 0 Z " fill="#EE0704" transform="translate(181,54)"/>
<path d="M0 0 C1.79068573 2.6860286 2.66055791 4.6626589 3.625 7.6875 C3.88539063 8.49574219 4.14578125 9.30398437 4.4140625 10.13671875 C4.60742188 10.75160156 4.80078125 11.36648437 5 12 C4.34 12.66 3.68 13.32 3 14 C2.49307308 12.4188708 1.99473557 10.83498617 1.5 9.25 C1.2215625 8.36828125 0.943125 7.4865625 0.65625 6.578125 C0 4 0 4 0 0 Z " fill="#E44846" transform="translate(262,181)"/>
<path d="M0 0 C2.24956302 2.24956302 3.00510965 4.06323263 4.1875 7 C4.55230469 7.886875 4.91710937 8.77375 5.29296875 9.6875 C6 12 6 12 5 14 C1.34133706 9.67612562 0 5.65076098 0 0 Z " fill="#E55153" transform="translate(256,166)"/>
<path d="M0 0 C1.32 0 2.64 0 4 0 C5 1 6 2 7 3 C9.60611077 3.72197162 9.60611077 3.72197162 12 4 C11.01 5.485 11.01 5.485 10 7 C6.42032008 5.34784004 3.22017048 3.26875648 0 1 C0 0.67 0 0.34 0 0 Z " fill="#E74548" transform="translate(91,342)"/>
<path d="M0 0 C0.66 0 1.32 0 2 0 C0.85569823 3.87302138 -0.23320098 7.00263439 -3 10 C-3.66 10 -4.32 10 -5 10 C-4.67 8.68 -4.34 7.36 -4 6 C-3.34 6 -2.68 6 -2 6 C-1.7834375 5.071875 -1.7834375 5.071875 -1.5625 4.125 C-1 2 -1 2 0 0 Z " fill="#DF3333" transform="translate(209,310)"/>
<path d="M0 0 C0.33 0.66 0.66 1.32 1 2 C1.66 2.33 2.32 2.66 3 3 C3 5.64 3 8.28 3 11 C2.34 11 1.68 11 1 11 C-0.17571451 7.32589215 -0.07366746 3.83070817 0 0 Z " fill="#E92A2C" transform="translate(225,160)"/>
<path d="M0 0 C-8.42857143 3.42857143 -8.42857143 3.42857143 -13 3 C-11.00584635 0.30202742 -9.87486211 -0.02681526 -6.5 -0.75 C-3 -1 -3 -1 0 0 Z " fill="#E65658" transform="translate(163,351)"/>
<path d="M0 0 C1.59440475 3.18880951 0.90786761 5.70897992 0 9 C-0.33 8.01 -0.66 7.02 -1 6 C-3.01508358 5.26676204 -3.01508358 5.26676204 -5 5 C-3.35 3.35 -1.7 1.7 0 0 Z " fill="#EC6562" transform="translate(178,141)"/>
<path d="M0 0 C3.515562 2.343708 4.42274025 4.13571362 6 8 C5.67 8.99 5.34 9.98 5 11 C2.03947516 7.63576723 1.07710178 4.30840713 0 0 Z " fill="#E44446" transform="translate(76,320)"/>
<path d="M0 0 C0.66 0 1.32 0 2 0 C2 2.31 2 4.62 2 7 C1.01 7.33 0.02 7.66 -1 8 C-1.04241723 5.66705225 -1.04092937 3.33297433 -1 1 C-0.67 0.67 -0.34 0.34 0 0 Z " fill="#EF0704" transform="translate(227,256)"/>
<path d="M0 0 C0.66 0.33 1.32 0.66 2 1 C1.67 3.97 1.34 6.94 1 10 C-1 8 -1 8 -1.1875 4.4375 C-1 1 -1 1 0 0 Z " fill="#EC2727" transform="translate(250,220)"/>
<path d="M0 0 C0.144375 0.598125 0.28875 1.19625 0.4375 1.8125 C0.8872439 3.56150404 1.42892341 5.28677023 2 7 C1.34 7 0.68 7 0 7 C0 6.34 0 5.68 0 5 C-1.98 5.33 -3.96 5.66 -6 6 C-4 4 -2 2 0 0 Z " fill="#E85A5D" transform="translate(161,160)"/>
<path d="M0 0 C0.66 0 1.32 0 2 0 C1.32829194 3.8063457 0.27253436 7.35206816 -1 11 C-1.66 10.67 -2.32 10.34 -3 10 C-2.01 6.7 -1.02 3.4 0 0 Z " fill="#E44747" transform="translate(147,137)"/>
<path d="M0 0 C0.99 0 1.98 0 3 0 C3 1.32 3 2.64 3 4 C2.01 4.495 2.01 4.495 1 5 C1 6.32 1 7.64 1 9 C0.34 9 -0.32 9 -1 9 C-0.67 6.03 -0.34 3.06 0 0 Z " fill="#EC0909" transform="translate(152,126)"/>
<path d="M0 0 C0.66 0 1.32 0 2 0 C1.67 2.64 1.34 5.28 1 8 C0.01 8.33 -0.98 8.66 -2 9 C-2 7.35 -2 5.7 -2 4 C-1.34 4 -0.68 4 0 4 C0 2.68 0 1.36 0 0 Z " fill="#ED070A" transform="translate(165,94)"/>
<path d="M0 0 C0.95465783 2.16967689 1.14401212 3.56328793 0.3984375 5.82421875 C-0.35870385 7.5684743 -1.17609198 9.28627131 -2 11 C-2.66 11 -3.32 11 -4 11 C-3.52269162 9.5410574 -3.04308958 8.08286504 -2.5625 6.625 C-2.29566406 5.81289063 -2.02882812 5.00078125 -1.75390625 4.1640625 C-1 2 -1 2 0 0 Z " fill="#E85F61" transform="translate(216,285)"/>
<path d="M0 0 C2.97903734 2.97903734 4 5.80285329 4 10 C3.01 10 2.02 10 1 10 C0.67 6.7 0.34 3.4 0 0 Z " fill="#E74F51" transform="translate(296,271)"/>
<path d="M0 0 C0.33 0 0.66 0 1 0 C1.33 2.31 1.66 4.62 2 7 C1.34 7 0.68 7 0 7 C0.33 8.65 0.66 10.3 1 12 C0.01 11.67 -0.98 11.34 -2 11 C-2 9.02 -2 7.04 -2 5 C-1.34 5 -0.68 5 0 5 C0 3.35 0 1.7 0 0 Z " fill="#E43233" transform="translate(144,159)"/>
<path d="M0 0 C0.33 0 0.66 0 1 0 C0.67 2.31 0.34 4.62 0 7 C-1.32 7.33 -2.64 7.66 -4 8 C-3.67 6.68 -3.34 5.36 -3 4 C-2.34 4 -1.68 4 -1 4 C-0.67 2.68 -0.34 1.36 0 0 Z " fill="#EB5150" transform="translate(84,246)"/>
<path d="M0 0 C0.66 0 1.32 0 2 0 C1.67 1.32 1.34 2.64 1 4 C0.34 4 -0.32 4 -1 4 C-1.12375 4.804375 -1.2475 5.60875 -1.375 6.4375 C-1.58125 7.283125 -1.7875 8.12875 -2 9 C-2.99 9.495 -2.99 9.495 -4 10 C-4 9.01 -4 8.02 -4 7 C-3.34 7 -2.68 7 -2 7 C-1.855625 6.030625 -1.71125 5.06125 -1.5625 4.0625 C-1 1 -1 1 0 0 Z " fill="#E7292A" transform="translate(98,229)"/>
<path d="M0 0 C0.99 0 1.98 0 3 0 C2.625 2.4375 2.625 2.4375 2 5 C1.01 5.495 1.01 5.495 0 6 C-0.66 5.34 -1.32 4.68 -2 4 C-1.34 2.68 -0.68 1.36 0 0 Z " fill="#E3151A" transform="translate(179,141)"/>
<path d="M0 0 C0.33 0 0.66 0 1 0 C1 2.31 1 4.62 1 7 C0.34 7 -0.32 7 -1 7 C-1 7.66 -1 8.32 -1 9 C-1.66 9 -2.32 9 -3 9 C-2.01 6.03 -1.02 3.06 0 0 Z " fill="#ED6F6A" transform="translate(192,18)"/>
<path d="M0 0 C1 4 1 4 1 7 C-0.65 7.33 -2.3 7.66 -4 8 C-2.68 5.36 -1.36 2.72 0 0 Z " fill="#EE574F" transform="translate(278,326)"/>
<path d="M0 0 C2.64 1.98 5.28 3.96 8 6 C5.3333581 7.33332095 3.83319697 6.67102033 1 6 C0.67 4.02 0.34 2.04 0 0 Z " fill="#EF6668" transform="translate(114,324)"/>
<path d="M0 0 C0.33 1.32 0.66 2.64 1 4 C-0.9375 6.25 -0.9375 6.25 -3 8 C-3.66 7.67 -4.32 7.34 -5 7 C-3.35 4.69 -1.7 2.38 0 0 Z " fill="#E95655" transform="translate(208,302)"/>
<path d="M0 0 C1.73662334 3.22515763 2.8905928 6.51329166 4 10 C3.34 10 2.68 10 2 10 C2 9.34 2 8.68 2 8 C1.34 8 0.68 8 0 8 C0 5.36 0 2.72 0 0 Z " fill="#E23233" transform="translate(267,194)"/>
<path d="M0 0 C1.32 0.33 2.64 0.66 4 1 C1.69 2.32 -0.62 3.64 -3 5 C-3.33 4.01 -3.66 3.02 -4 2 C-2.68 2 -1.36 2 0 2 C0 1.34 0 0.68 0 0 Z " fill="#E73535" transform="translate(173,185)"/>
<path d="M0 0 C0.66 0 1.32 0 2 0 C0.60667426 3.36720387 -0.9789286 4.9859524 -4 7 C-3.67 5.35 -3.34 3.7 -3 2 C-2.01 2 -1.02 2 0 2 C0 1.34 0 0.68 0 0 Z " fill="#E84446" transform="translate(193,169)"/>
<path d="M0 0 C2.18975773 3.28463659 2.99806563 6.20696275 4 10 C3.01 9.67 2.02 9.34 1 9 C0.67 6.03 0.34 3.06 0 0 Z " fill="#E64A4A" transform="translate(248,144)"/>
<path d="M0 0 C0.33 0.66 0.66 1.32 1 2 C1.66 2.33 2.32 2.66 3 3 C1.35 3.66 -0.3 4.32 -2 5 C-2 5.66 -2 6.32 -2 7 C-2.66 6.67 -3.32 6.34 -4 6 C-2.68 4.02 -1.36 2.04 0 0 Z " fill="#EF6668" transform="translate(200,150)"/>
</svg>
